<?xml version="1.0" encoding="utf-8"?>
<!-- Generator: Adobe Illustrator 28.0.0, SVG Export Plug-In . SVG Version: 6.00 Build 0)  -->
<svg version="1.1" id="Layer_1" xmlns="http://www.w3.org/2000/svg" xmlns:xlink="http://www.w3.org/1999/xlink" x="0px" y="0px"
	 viewBox="0 0 800 800" style="enable-background:new 0 0 800 800;" xml:space="preserve">
<style type="text/css">
	.st0{stroke:#000000;stroke-width:0.25;}
</style>
<g>
	<g>
		<g>
			<g>
				<g>
					<g>
						<path class="st0" d="M97.7,525.4c0-15.6,0-18.5-0.2-21.8c-0.2-3.5-0.9-5.1-3.7-5.9c-0.7-0.2-2.1-0.3-3.3-0.3
							c-0.9,0-1.5-0.2-1.5-0.9s0.6-0.9,1.9-0.9c4.5,0,9.9,0.3,12.3,0.3c2.6,0,8-0.3,13.1-0.3c10.7,0,24.9,0,34.2,11.7
							c4.3,5.4,8.3,13.9,8.3,26.1c0,13-4.5,22.9-9.3,28.7c-3.9,4.8-12.8,12.1-28.6,12.1c-3.1,0-6.6-0.3-9.8-0.6
							c-3.2-0.3-6.2-0.6-8.4-0.6c-0.9,0-2.8,0-4.9,0.1c-2,0-4.2,0.2-5.9,0.2c-1.1,0-1.7-0.3-1.7-1c0-0.5,0.3-0.8,1.4-0.8
							c1.3,0,2.3-0.2,3.1-0.4c1.7-0.4,2.1-2.7,2.5-5.7c0.4-4.3,0.4-12.5,0.4-21.9V525.4z M108.4,536.7c0,10.9,0.1,18.8,0.2,20.8
							c0.1,2.6,0.3,6.7,0.9,7.8c1.1,2,4.4,4.1,11.2,4.1c8.7,0,14.5-2.1,19.6-7.4c5.5-5.7,7.2-15,7.2-25.6c0-13.1-4.5-21.5-8.2-25.7
							c-7.9-9.1-17.6-10.3-24.2-10.3c-1.7,0-4.9,0.3-5.6,0.7c-0.8,0.4-1,0.9-1,2.1c-0.1,3.5-0.1,12.5-0.1,20.6V536.7z"/>
						<path class="st0" d="M172.5,532.5c0-13.3,0-15.8-0.1-18.5c-0.2-3-0.9-3.9-3.2-4.7c-0.6-0.2-1.9-0.3-3-0.3
							c-0.8,0-1.3-0.3-1.3-0.9c0-0.6,0.6-0.8,1.7-0.8c3.9,0,8.7,0.2,10.2,0.2c2.6,0,9.4-0.2,11.7-0.2c4.8,0,10.2,0.5,14.3,3.7
							c2.1,1.8,5.3,6.2,5.3,12c0,6.5-3.1,12.3-10.4,19.4c6.7,9.9,12,17.8,16.5,23.3c4.2,5,6.8,5.5,8,5.8c0.8,0.2,1.2,0.2,1.8,0.2
							s0.9,0.5,0.9,0.9c0,0.7-0.5,0.9-1.5,0.9h-7.2c-4.2,0-6.2-0.5-8.2-1.8c-3.2-2-6.1-6.1-10.2-12.9c-3-4.7-6.1-10.6-7.1-11.9
							c-0.4-0.5-0.9-0.6-1.4-0.6l-6.7-0.2c-0.3,0-0.6,0.2-0.6,0.7v1.2c0,8.1,0.1,14.9,0.4,18.6c0.3,2.6,0.6,4.2,2.9,4.6
							c1.1,0.2,2.7,0.3,3.7,0.3c0.6,0,0.9,0.5,0.9,0.9c0,0.6-0.6,0.9-1.5,0.9c-4.4,0-10.6-0.3-11.7-0.3c-1.5,0-6.2,0.3-9.2,0.3
							c-0.9,0-1.5-0.3-1.5-0.9c0-0.4,0.3-0.9,1.2-0.9c1.1,0,2-0.1,2.6-0.3c1.5-0.4,2-2.1,2.2-4.6c0.3-3.7,0.3-10.6,0.3-18.6V532.5z
							 M182.1,539.3c0,0.9,0.2,1.2,0.7,1.5c1.6,0.6,3.8,0.8,5.7,0.8c3,0,4-0.3,5.3-1.4c2.3-2,4.9-5.8,4.9-13
							c0-12.4-7-15.5-11.4-15.5c-1.9,0-3.7,0.1-4.4,0.3c-0.5,0.2-0.7,0.5-0.7,1.2V539.3z"/>
						<path class="st0" d="M222.5,540.2c0-14.9,8.7-34.3,31.5-34.3c19,0,30.7,12.7,30.7,32.7c0,20.1-12.1,35.8-31.5,35.8
							C231.3,574.5,222.5,555.8,222.5,540.2z M273.5,541.9c0-19.4-9.6-31.3-21.8-31.3c-8.4,0-18.2,5.4-18.2,27
							c0,18,8.5,32.2,22.7,32.2C261.6,569.8,273.5,566.8,273.5,541.9z"/>
						<path class="st0" d="M303.4,561.4c0.2,6.8,1.1,8.9,2.6,9.5c1.3,0.5,2.7,0.6,3.9,0.6c0.9,0,1.3,0.4,1.3,0.9
							c0,0.7-0.7,0.9-1.7,0.9c-4.9,0-8.4-0.3-9.7-0.3c-0.7,0-4.3,0.3-8.1,0.3c-1,0-1.7-0.1-1.7-0.9c0-0.5,0.5-0.9,1.2-0.9
							c1,0,2.4-0.1,3.4-0.4c2-0.6,2.2-3,2.3-10.6l0.7-51.9c0-1.8,0.5-3,1.3-3c0.9,0,2,1.3,3.2,2.9c0.9,1.1,12.2,15,23.1,27.9
							c5.1,6.1,15.1,18.4,16.2,19.7h0.3l-0.8-38.9c-0.1-5.4-0.8-6.9-2.6-7.7c-1.1-0.5-2.9-0.5-3.9-0.5c-0.9,0-1.2-0.4-1.2-0.9
							c0-0.7,0.8-0.8,1.9-0.8c3.9,0,7.9,0.2,9.6,0.2c0.9,0,3.7-0.2,7.3-0.2c1,0,1.7,0.1,1.7,0.8c0,0.5-0.4,0.9-1.3,0.9
							c-0.8,0-1.4,0-2.3,0.3c-2,0.7-2.6,2.3-2.7,7.2l-0.9,55.2c0,2-0.6,2.8-1.2,2.8c-1.3,0-2.3-0.9-3.1-1.9
							c-4.7-5.3-14.1-16.1-21.9-25.2c-8.2-9.5-16.1-20.1-17.6-21.6h-0.3L303.4,561.4z"/>
						<path class="st0" d="M373.8,551.3c-0.4,0-0.5,0.1-0.7,0.6l-4,11.7c-0.8,2.2-1.1,4.3-1.1,5.4c0,1.5,0.7,2.5,3,2.5h1.1
							c0.9,0,1.1,0.4,1.1,0.9c0,0.7-0.4,0.9-1.2,0.9c-2.5,0-6-0.3-8.4-0.3c-0.8,0-4.8,0.3-8.7,0.3c-0.9,0-1.4-0.2-1.4-0.9
							c0-0.5,0.3-0.9,0.9-0.9c0.7,0,1.5-0.1,2.2-0.1c3.4-0.6,4.7-3.3,6.2-7.7l19.6-55.1c0.9-2.5,1.5-3.5,2.2-3.5
							c1.1,0,1.5,0.8,2.2,2.8c1.8,4.8,14.3,40.7,19.1,53.9c2.9,7.9,5,9.1,6.4,9.4c1.1,0.2,2,0.3,2.8,0.3c0.7,0,1,0.3,1,0.9
							c0,0.7-0.4,0.9-3.2,0.9c-2.6,0-8.1,0-14.4-0.2c-1.4-0.1-2.2-0.1-2.2-0.7c0-0.5,0.2-0.8,0.9-0.9c0.5-0.1,1-0.9,0.7-2l-5.8-17.6
							c-0.2-0.5-0.4-0.6-0.8-0.6H373.8z M389.8,546.5c0.3,0,0.4-0.2,0.3-0.5l-7.1-22.2c-0.1-0.3-0.2-0.8-0.3-0.8
							c-0.3,0-0.3,0.5-0.4,0.8l-7.3,22.1c-0.2,0.4,0,0.6,0.3,0.6H389.8z"/>
						<path class="st0" d="M434.5,547.9c0,11.2,0,16.8,1.6,18.4c1.3,1.3,4.2,1.9,10,1.9c4,0,6.9-0.1,8.8-2.5
							c0.9-1.1,1.7-3.6,1.9-5.3c0.1-0.8,0.3-1.3,0.9-1.3c0.5,0,0.7,0.9,0.7,2s-0.5,7.5-1.1,10.1c-0.5,2-0.9,2.4-4.8,2.4
							c-5.4,0-9.7-0.1-13.5-0.3c-3.8-0.1-6.9-0.2-10-0.2c-0.9,0-2.5,0.1-4.3,0.1c-1.8,0.1-3.7,0.2-5.2,0.2c-0.9,0-1.5-0.3-1.5-0.9
							c0-0.4,0.3-0.9,1.2-0.9c1.1,0,2-0.1,2.6-0.3c1.5-0.4,2-2.1,2.2-4.6c0.3-3.7,0.3-10.6,0.3-18.6v-15.4c0-13.3,0-15.8-0.1-18.5
							c-0.2-3-0.9-3.9-3.2-4.7c-0.6-0.2-1.5-0.3-2.5-0.3c-0.9,0-1.3-0.3-1.3-0.9c0-0.6,0.5-0.8,1.6-0.8c3.5,0,8.3,0.2,10.3,0.2
							c1.8,0,7.9-0.2,10.8-0.2c1.1,0,1.6,0.2,1.6,0.8c0,0.6-0.4,0.9-1.4,0.9c-0.9,0-2,0.1-2.9,0.3c-2,0.4-2.6,1.6-2.8,4.7
							c-0.2,2.8-0.2,5.3-0.2,18.5V547.9z"/>
						<path class="st0" d="M476.3,550.6c0-4.7-0.7-6.6-1.7-9.2c-0.5-1.3-10.8-20.6-13.4-25.2c-1.9-3.2-3.4-5.3-4.9-6.2
							c-0.9-0.6-2.2-1.1-3.2-1.1c-0.6,0-1.1-0.3-1.1-0.9c0-0.6,0.5-0.8,1.5-0.8c1.3,0,6.9,0.2,9.4,0.2c1.6,0,5.1-0.2,8.5-0.2
							c0.7,0,1.1,0.2,1.1,0.8c0,0.7-0.5,0.7-1.7,1.1c-0.6,0.2-1,0.6-1,1.3c0,0.7,0.3,1.7,0.9,3c1.4,2.7,11.2,23.2,12.5,25.6
							c0.9-2.1,10.1-20.8,11.2-23.5c0.8-2,1.1-3.5,1.1-4.6c0-0.8-0.3-1.6-1.6-2c-0.7-0.2-1.4-0.3-1.4-1c0-0.6,0.4-0.8,1.3-0.8
							c2.5,0,5.1,0.2,7.3,0.2c1.6,0,6.6-0.2,8-0.2c0.9,0,1.4,0.2,1.4,0.7c0,0.6-0.6,1-1.5,1c-0.8,0-2.1,0.4-3.2,1
							c-1.6,0.9-2.3,1.8-3.9,4.1c-2.5,3.5-13.2,24.3-14.6,28c-1.1,3.2-0.9,5.9-0.9,8.8v7c0,1.4,0,5,0.2,8.7c0.2,2.6,0.9,4.2,3.1,4.6
							c1.1,0.2,2.7,0.3,3.8,0.3c0.9,0,1.3,0.5,1.3,0.9c0,0.6-0.6,0.9-1.6,0.9c-4.7,0-9.7-0.3-11.8-0.3c-1.9,0-6.9,0.3-9.7,0.3
							c-1,0-1.6-0.2-1.6-0.9c0-0.4,0.3-0.9,1.2-0.9c1,0,2-0.1,2.6-0.3c1.5-0.4,2.1-2.1,2.3-4.6c0.3-3.7,0.3-7.3,0.3-8.7V550.6z"/>
						<path class="st0" d="M533.9,512.5l-11.2,0.3c-4.4,0.1-6.1,0.7-7.3,2.7c-0.8,1.2-1.1,2.4-1.3,3c-0.2,0.7-0.3,1.1-0.9,1.1
							c-0.5,0-0.7-0.5-0.7-1.4c0-1.4,1.5-9.9,1.6-10.6c0.2-1.1,0.4-1.6,0.9-1.6c0.6,0,1.4,0.7,3.2,1c2.2,0.3,5,0.4,7.5,0.4h30.5
							c2.4,0,4-0.2,5.1-0.4c1.2-0.2,1.8-0.4,2-0.4c0.5,0,0.6,0.5,0.6,1.9c0,1.9-0.2,8.3-0.2,10.6c-0.1,0.9-0.3,1.4-0.7,1.4
							c-0.6,0-0.8-0.4-0.9-1.8l-0.1-0.9c-0.2-2.3-2.1-4.9-8.9-5l-9.5-0.2v35.4c0,8,0.1,14.9,0.4,18.7c0.3,2.5,0.7,4.1,2.9,4.5
							c1,0.2,2.7,0.3,3.8,0.3c0.9,0,1.2,0.5,1.2,0.9c0,0.6-0.6,0.9-1.5,0.9c-5,0-10-0.3-12.1-0.3c-1.7,0-6.8,0.3-9.8,0.3
							c-0.9,0-1.5-0.3-1.5-0.9c0-0.4,0.3-0.9,1.2-0.9c1.1,0,2-0.1,2.6-0.3c1.5-0.4,2-2.1,2.2-4.6c0.3-3.7,0.3-10.6,0.3-18.6V512.5z"
							/>
						<path class="st0" d="M573,532.5c0-13.3,0-15.8-0.1-18.5c-0.2-3-0.9-4-2.6-4.6c-0.9-0.3-1.8-0.4-2.7-0.4c-0.8,0-1.2-0.2-1.2-1
							c0-0.5,0.6-0.7,1.8-0.7c2.8,0,7.9,0.2,10.1,0.2c1.9,0,6.7-0.2,9.6-0.2c0.9,0,1.5,0.2,1.5,0.7c0,0.8-0.4,1-1.2,1
							c-0.8,0-1.4,0.1-2.2,0.3c-2,0.4-2.6,1.6-2.8,4.7c-0.2,2.8-0.2,5.3-0.2,18.5v15.4c0,8.4,0,15.4,0.3,19.1c0.3,2.4,0.8,3.7,3,4.1
							c1,0.2,2.7,0.3,3.8,0.3c0.9,0,1.2,0.5,1.2,0.9c0,0.6-0.6,0.9-1.5,0.9c-5,0-10.1-0.3-12.1-0.3c-1.7,0-6.8,0.3-9.8,0.3
							c-0.9,0-1.5-0.3-1.5-0.9c0-0.4,0.3-0.9,1.2-0.9c1.1,0,2-0.1,2.6-0.3c1.5-0.4,2-1.6,2.2-4.2c0.3-3.6,0.3-10.6,0.3-19V532.5z"/>
						<path class="st0" d="M608.1,565c-7.4-7.5-9.4-17.4-9.4-25.8c0-6,1.6-16.3,8.8-24c5.5-5.8,12.6-9.3,23.8-9.3
							c4.7,0,7.5,0.4,10.9,0.9c2.8,0.5,5.3,1.1,7.5,1.4c0.9,0.1,1.1,0.5,1.1,1c0,0.7-0.2,1.8-0.3,4.8c-0.2,2.9-0.2,7.7-0.3,9.5
							c-0.1,1.2-0.3,2.2-1,2.2c-0.6,0-0.8-0.7-0.8-1.9c-0.1-2.8-1-5.9-2.9-8.1c-2.6-3-7.6-5.1-14.5-5.1c-6.6,0-10.8,1.4-14.2,4.9
							c-5.6,5.8-6.9,14.2-6.9,22.8c0,20.8,13.3,30.7,23.4,30.7c6.7,0,10.3-0.6,13.3-4.6c1.3-1.8,2.3-4.2,2.6-5.9
							c0.2-1.3,0.3-1.8,0.9-1.8c0.5,0,0.9,0.8,0.9,1.5c0,1-0.9,8.6-1.6,11.6c-0.3,1.5-0.7,2-2,2.6c-3,1.4-8.7,2-13.6,2
							C623.7,574.5,615,571.9,608.1,565z"/>
						<path class="st0" d="M663,572.2c-1.2-0.6-1.5-1-1.5-3c0-4.7,0.3-10.2,0.4-11.6c0-1.3,0.3-2.3,0.9-2.3c0.7,0,0.8,0.8,0.8,1.4
							c0,1.1,0.3,3,0.7,4.5c1.6,6.5,7.3,8.6,12,8.6c6.5,0,10.4-4.9,10.4-11.1c0-3.8-0.8-7.6-7.4-12.4l-4.4-3.1
							c-8.9-6.3-11.8-12.1-11.8-19.9c0-10.7,8.5-17.6,19-17.6c4.9,0,8.7,0.8,10.7,1.4c0.7,0.2,1,0.5,1,1.1c0,1.1-0.3,3.6-0.3,10.5
							c0,1.9-0.3,2.8-0.9,2.8c-0.5,0-0.8-0.5-0.8-1.5c0-0.8-0.3-3.5-2-5.8c-1.1-1.6-3.5-4.1-8.4-4.1c-5.4,0-10.2,3.4-10.2,9.4
							c0,3.9,1.2,7,7.9,11.5l3.1,2.1c9.9,6.6,13,13.3,13,21.2c0,6.5-2,11.7-7.5,16.4c-3.6,3.1-8.5,3.6-12.6,3.6
							C670.9,574.5,666.3,574,663,572.2z"/>
					</g>
				</g>
				<g>
					<path d="M100.5,595.8h3.2v22.3h-3.2V595.8z"/>
					<path d="M145.5,595.8v22.3h-2.6l-13.4-16.6v16.6h-3.2v-22.3h2.6l13.4,16.6v-16.6H145.5z"/>
					<path d="M172.6,598.6h-7.6v-2.8h18.4v2.8h-7.6v19.5h-3.2V598.6z"/>
					<path d="M219,615.3v2.8h-16.2v-22.3h15.7v2.8H206v6.8h11.2v2.7H206v7.2H219z"/>
					<path d="M240,595.8h3.2v19.5h12.1v2.8H240V595.8z"/>
					<path d="M274.9,595.8h3.2v19.5h12.1v2.8h-15.3V595.8z"/>
					<path d="M309.7,595.8h3.2v22.3h-3.2V595.8z"/>
					<path d="M351,606.8h3.1v8.7c-1.1,0.9-2.4,1.6-3.9,2.1c-1.5,0.5-3,0.7-4.6,0.7c-2.3,0-4.3-0.5-6.1-1.5c-1.8-1-3.2-2.3-4.3-4.1
						c-1-1.7-1.5-3.7-1.5-5.8s0.5-4.1,1.5-5.9c1-1.7,2.5-3.1,4.3-4.1c1.8-1,3.9-1.5,6.1-1.5c1.8,0,3.4,0.3,4.9,0.9
						c1.5,0.6,2.7,1.4,3.7,2.6l-2,2c-1.8-1.7-3.9-2.6-6.5-2.6c-1.7,0-3.2,0.4-4.6,1.1s-2.4,1.8-3.2,3.1c-0.8,1.3-1.1,2.8-1.1,4.4
						c0,1.6,0.4,3.1,1.1,4.4c0.8,1.3,1.8,2.3,3.2,3.1c1.3,0.7,2.9,1.1,4.5,1.1c2,0,3.7-0.5,5.2-1.4V606.8z"/>
					<path d="M392.3,615.3v2.8h-16.2v-22.3h15.7v2.8h-12.6v6.8h11.2v2.7h-11.2v7.2H392.3z"/>
					<path d="M432.5,595.8v22.3h-2.6l-13.4-16.6v16.6h-3.2v-22.3h2.6l13.4,16.6v-16.6H432.5z"/>
					<path d="M459.1,616.9c-1.8-1-3.2-2.3-4.2-4.1c-1-1.7-1.5-3.7-1.5-5.8s0.5-4.1,1.5-5.8c1-1.7,2.4-3.1,4.2-4.1
						c1.8-1,3.8-1.5,6.1-1.5c1.7,0,3.3,0.3,4.8,0.9c1.4,0.6,2.7,1.4,3.7,2.6l-2.1,2c-1.7-1.8-3.8-2.6-6.3-2.6
						c-1.7,0-3.2,0.4-4.5,1.1c-1.3,0.7-2.4,1.8-3.1,3.1c-0.8,1.3-1.1,2.8-1.1,4.4s0.4,3.1,1.1,4.4c0.8,1.3,1.8,2.3,3.1,3.1
						c1.3,0.7,2.8,1.1,4.5,1.1c2.5,0,4.6-0.9,6.3-2.7l2.1,2c-1,1.1-2.3,2-3.7,2.6c-1.5,0.6-3.1,0.9-4.8,0.9
						C462.9,618.4,460.9,617.9,459.1,616.9z"/>
					<path d="M510.3,615.3v2.8h-16.2v-22.3h15.7v2.8h-12.6v6.8h11.2v2.7h-11.2v7.2H510.3z"/>
					<path d="M571.3,606.8h3.1v8.7c-1.1,0.9-2.4,1.6-3.9,2.1c-1.5,0.5-3,0.7-4.6,0.7c-2.3,0-4.3-0.5-6.1-1.5c-1.8-1-3.2-2.3-4.3-4.1
						c-1-1.7-1.5-3.7-1.5-5.8s0.5-4.1,1.5-5.9c1-1.7,2.5-3.1,4.3-4.1c1.8-1,3.9-1.5,6.1-1.5c1.8,0,3.4,0.3,4.9,0.9
						c1.5,0.6,2.7,1.4,3.7,2.6l-2,2c-1.8-1.7-3.9-2.6-6.5-2.6c-1.7,0-3.2,0.4-4.6,1.1c-1.3,0.7-2.4,1.8-3.2,3.1
						c-0.8,1.3-1.1,2.8-1.1,4.4c0,1.6,0.4,3.1,1.1,4.4c0.8,1.3,1.8,2.3,3.2,3.1c1.3,0.7,2.9,1.1,4.5,1.1c2,0,3.7-0.5,5.2-1.4V606.8z
						"/>
					<path d="M598.7,615.8c-1.7-1.7-2.5-4.1-2.5-7.3v-12.7h3.2v12.6c0,4.8,2.1,7.2,6.3,7.2c2,0,3.6-0.6,4.7-1.8
						c1.1-1.2,1.6-3,1.6-5.4v-12.6h3.1v12.7c0,3.2-0.8,5.7-2.5,7.3c-1.7,1.7-4,2.5-6.9,2.5C602.7,618.4,600.4,617.5,598.7,615.8z"/>
					<path d="M652.5,618.1l-4.8-6.8c-0.6,0-1.1,0.1-1.4,0.1h-5.5v6.8h-3.2v-22.3h8.7c2.9,0,5.2,0.7,6.8,2.1c1.7,1.4,2.5,3.3,2.5,5.7
						c0,1.7-0.4,3.2-1.3,4.4c-0.8,1.2-2.1,2.1-3.6,2.6l5.3,7.5H652.5z M650.8,607.3c1.1-0.9,1.6-2.1,1.6-3.7c0-1.6-0.5-2.9-1.6-3.7
						c-1.1-0.9-2.6-1.3-4.6-1.3h-5.4v10h5.4C648.2,608.6,649.7,608.2,650.8,607.3z"/>
					<path d="M678.9,615.8c-1.7-1.7-2.5-4.1-2.5-7.3v-12.7h3.2v12.6c0,4.8,2.1,7.2,6.3,7.2c2,0,3.6-0.6,4.7-1.8
						c1.1-1.2,1.6-3,1.6-5.4v-12.6h3.1v12.7c0,3.2-0.8,5.7-2.5,7.3c-1.7,1.7-4,2.5-6.9,2.5C682.9,618.4,680.6,617.5,678.9,615.8z"/>
				</g>
			</g>
		</g>
	</g>
</g>
<g>
	<path d="M516.4,313.9c-4.6-21.4-13.7-40.6-28.5-56.9c-18.1-19.8-40.2-32.6-66.8-37.4c-9.2-1.7-18.5-2.7-27.9-2.8
		c-3.9,0-7.8,0-11.7,0c15,4.4,29.3,10.8,43.1,18.1c26.8,14,50.9,31.6,70,55.4c11.2,17.3,16,34.4,12.9,51.3
		c-0.4-28.1-24.1-55.3-33.7-60.6c6.2,8.6,11,17.3,13,27.3c-30-30.9-66.3-50.6-106.9-63c16,7.4,31.1,16.5,45.8,26.1
		c18.4,12,38.1,27.7,41.5,33.5c-6-3.4-11.5-6.4-16.9-9.6c-20-11.8-39.2-25-59.6-36.1c-10.8-5.9-21.9-11.2-33.9-14.2
		c-7.2-1.8-13,0.7-16.5,6.9c-0.3,0.6-0.2,1.6-1.4,1.2c-0.3-4.9,1.6-10.7,6-13.1c0.9-0.5,1-1,0.7-2.1c-2.5-8.2,0.9-16.6,7.3-21.2
		c-19,0-38,0-56.9-0.1v0h-31c0,0,25.1,4.1,30.4,40.7v211.3l33.6,0c-9.2-5.7-9.7-30.7-3.9-44c4.6-10.5,11.4-18.8,22.6-23.3
		c-2.7-1.4-5.4-2-8.2-2.1c-2.3-0.1-3.8-1.2-4.2-3.4c-0.4-2.3,0.7-3.9,2.7-4.8c2.6-1.3,5.3-1,8-0.1c11.6,3.9,19.9,13.8,22.5,27.5
		c1.7-2.8,2.3-5.4,2.3-8.1c0.3-12.1-6.5-21.3-19.1-26c-5.6-2.1-8.6-4.3-15.4-4.8c-4.6,0.8-6.1,3.6-7,6c-1.5-1.3-1.9-2.9-1.9-4.7
		c0.1-5,2.1-9.2,5.2-12.9c1.4-1.7,3.4-2.4,5.6-2.5c14.8-0.9,37.6,12.1,41.8,29.2c0.7,3,0.1,6.1,0.8,9.3c4.9-7.4,2.5-16.7-1.7-22.7
		c-4-5.9-9.6-10.1-15.5-13.9c-5.7-3.7-10.2-8.3-13-14.5c-0.3-0.6-0.6-1.4-1.4-1.6c-0.1,0.3-0.2,0.5-0.2,0.7c0.6,6.2,0.6,6.2-5.5,4.7
		c-5-1.3-10.1-1.1-15.2-0.4c-1.6,0.2-3.2,0.4-4.8,0.3c-5.4-0.3-7.8-3.6-5.7-8.5c4-8.9,8.5-17.6,12.7-26.5c1.7-3.5,3.4-6.9,4.7-10.5
		c2-5.5,1.1-8.4-4-11.2c-2.5-1.4-3.2-2.7-2.5-5.5c3.4-12.6,7.3-25,13-36.7c4.4-9.1,9.6-10.7,19-6.9c11.5,4.7,20.4,12.8,28.4,21.9
		c9.1,10.4,18,21,29.8,28.6c4.2,2.7,8.7,4.8,13.7,7c-8.2,0-23.2-5.1-35.8-21.9c0.6,3.8,4.5,12.5,8.5,16.7
		c17.6,18.2,10.5,44.2-2.5,58.4c-3.5,3.9-7.4,7.4-11.9,10.8c4.8,3.3,6.2,7.9,5.7,14.3c3.1-5.8,2.7-11.8,6.6-16.6
		c4.4,7.5,2.8,15,1.7,22.6c6.1-17.7,13.5-34.8,21.5-52.9c0.4,6.4,1.2,11.6,2.1,16.9c2,11,6.5,21.3,8.8,32.2
		c2.8,12.6,2,24.9-4.4,36.5c-0.6,1-0.9,2.3-2.8,3c5.2-15.8,2.2-30.5-5.5-44.5c0.4,3.1,1,6.1,1.3,9.2c1.3,16.5-5,30.6-14.5,43.5
		c-4.7,6.3-10.2,11.9-15.5,17.7c-4.3,4.6-8.8,9-12.4,14.3c4,0,8.1,0,12.7,0c52.4-2.2,78.2-25.5,91.3-40.6c18.9-21.8,29-47.3,31-75.9
		C519.8,339.4,519.2,326.5,516.4,313.9z M472.9,342.9c-3.2,7.8-7.4,14.9-12.3,21.7c-1.9,2.6-4.1,5-7.2,6.4c-2.7,1.3-5.4,1.3-7.6-1
		c-2.2-2.2-3.6-4.6-2.5-8c2-6,6.3-9.6,11.7-12.3c6.6-3.3,7.9-6.4,6.1-13.6c-0.4-1.6-0.9-3.1-1.2-4.7c-0.2-0.9-0.6-2.2,0.5-2.7
		c1.3-0.6,1.5,0.9,2.1,1.6c2.1,2.3,3.2,5.2,4.5,8.2c3.1-6.7,0.4-14.5-5.6-17.4c-5.6-2.7-12.4,0.1-15.6,6.3c-2.7,5.2-3.3,10.9-3,16.7
		c0.3,5.2-0.1,10.3-1.7,16c-1.4-3.9-1.4-7.2-1.8-10.3c-0.9-9.7-1-19.4,4.4-28.2c3.6-5.7,11-9.5,16.7-8.7c7.5,1.2,12.7,5.2,14.2,12.8
		C475.7,331.5,475.1,337.3,472.9,342.9z"/>
	<path d="M399,435.8c3.3-5.5,6.5-11,8.3-17.3c-9.6,13-22.3,23.5-31.4,36.9c-2.5,4.7-4.1,9.1-5.1,13.2c3.5,0,7.2,0,11.1,0
		c0.5-1.9,1.3-3.6,2-5.4C388.2,453.7,393.6,444.8,399,435.8z"/>
	<path d="M355.6,308.1c9.4-6.6,19.6-5.9,30-3.5c0.7,0.2,1.4,0.4,2.1,0.5c0.1,0,0.2-0.1,0.9-0.4c-6.5-3.5-12.5-6.8-19.5-8.1
		c-8.7-1.6-16.3,1.4-23.9,5.2c-1.1,0.6-1.7,1.4-1.2,2.7C345.8,308.8,352,310.7,355.6,308.1z"/>
	<path d="M387.4,313.4c-9.7,2.2-18.8,3.4-28.1,3.8c-3.1,0.1-5.8,0.9-7.9,3.3C361.1,327.7,373.5,325.3,387.4,313.4z"/>
	<path d="M350.1,281.6c-0.1-4.8-0.8-9.5-2.9-15.1c-2.9,8.3-6.7,15.1-6.3,23c0.1,3,1.1,3.5,3.5,1.9C348,289,350.2,286,350.1,281.6z"
		/>
</g>
</svg>
