<?xml version="1.0" encoding="utf-8"?>
<!-- Generator: Adobe Illustrator 28.0.0, SVG Export Plug-In . SVG Version: 6.00 Build 0)  -->
<svg version="1.1" id="Layer_1" xmlns="http://www.w3.org/2000/svg" xmlns:xlink="http://www.w3.org/1999/xlink" x="0px" y="0px"
	 viewBox="0 0 800 800" style="enable-background:new 0 0 800 800;" xml:space="preserve">
<style type="text/css">
	.st0{stroke:#000000;stroke-width:0.25;}
</style>
<g>
	<g>
		<g>
			<g>
				<path class="st0" d="M239.1,509.5c0,3.8-0.5,7.3-1.6,10.4c-1,3.2-2.5,5.9-4.4,8.2s-4.2,4.1-6.8,5.3s-5.6,1.9-8.9,1.9H201v-51.7
					h16.4c3.2,0,6.2,0.6,8.9,1.9s4.9,3,6.8,5.3c1.9,2.3,3.4,5,4.4,8.2C238.5,502.2,239.1,505.7,239.1,509.5z M230.9,509.5
					c0-2.8-0.3-5.4-0.9-7.6c-0.6-2.3-1.5-4.2-2.7-5.7c-1.2-1.6-2.6-2.8-4.3-3.6c-1.7-0.8-3.6-1.3-5.6-1.3h-8.3v36.4h8.3
					c2.1,0,4-0.4,5.6-1.3c1.7-0.8,3.1-2,4.3-3.6s2.1-3.5,2.7-5.7C230.6,514.9,230.9,512.3,230.9,509.5z"/>
				<path class="st0" d="M253.6,515.1v20.2h-8v-51.7h13.1c2.9,0,5.4,0.4,7.5,1.1s3.8,1.7,5.1,3.1c1.3,1.3,2.3,2.9,2.9,4.7
					s0.9,3.8,0.9,6c0,1.7-0.2,3.4-0.6,4.9s-1,3-1.8,4.2s-1.8,2.4-3,3.3c-1.2,1-2.5,1.7-4,2.3c1,0.7,1.9,1.7,2.6,3l10.7,19.1h-7.2
					c-0.7,0-1.3-0.2-1.8-0.5s-0.9-0.8-1.2-1.4l-9-16.5c-0.3-0.6-0.7-1.1-1.1-1.3c-0.4-0.3-1-0.4-1.8-0.4L253.6,515.1L253.6,515.1z
					 M253.6,508.2h5c1.5,0,2.8-0.2,3.9-0.7s2-1.1,2.8-1.9c0.7-0.8,1.3-1.7,1.6-2.8s0.5-2.3,0.5-3.6c0-2.6-0.7-4.6-2.1-6
					s-3.6-2.1-6.6-2.1h-5.1L253.6,508.2L253.6,508.2z"/>
				<path class="st0" d="M323.8,509.5c0,3.8-0.5,7.3-1.6,10.5c-1,3.2-2.5,6-4.4,8.4s-4.2,4.2-6.8,5.5s-5.6,2-8.9,2
					c-3.2,0-6.2-0.7-8.9-2c-2.7-1.3-5-3.2-6.9-5.5s-3.4-5.2-4.4-8.4s-1.6-6.7-1.6-10.5s0.5-7.3,1.6-10.5c1-3.2,2.5-6,4.4-8.4
					s4.2-4.2,6.9-5.5c2.7-1.3,5.6-2,8.9-2c3.2,0,6.2,0.7,8.9,2s4.9,3.2,6.8,5.5s3.4,5.1,4.4,8.4S323.8,505.7,323.8,509.5z
					 M315.6,509.5c0-2.8-0.3-5.4-0.9-7.6s-1.5-4.2-2.7-5.7c-1.2-1.6-2.6-2.8-4.3-3.6c-1.7-0.8-3.6-1.2-5.6-1.2s-4,0.4-5.7,1.2
					c-1.7,0.8-3.1,2-4.3,3.6c-1.2,1.6-2.1,3.5-2.7,5.7c-0.6,2.3-0.9,4.8-0.9,7.6c0,2.8,0.3,5.4,0.9,7.6c0.6,2.3,1.5,4.2,2.7,5.7
					c1.2,1.6,2.6,2.8,4.3,3.6c1.7,0.8,3.6,1.3,5.7,1.3s4-0.4,5.6-1.3c1.7-0.8,3.1-2,4.3-3.6c1.2-1.6,2.1-3.5,2.7-5.7
					C315.3,514.9,315.6,512.3,315.6,509.5z"/>
				<path class="st0" d="M335.2,483.7c0.2,0,0.4,0.1,0.6,0.2s0.4,0.3,0.5,0.5c0.2,0.2,0.4,0.5,0.6,0.8l22.5,34.6
					c-0.1-0.8-0.1-1.6-0.2-2.4s0-1.5,0-2.2v-31.4h7v51.7h-4.1c-0.6,0-1.2-0.1-1.6-0.4c-0.4-0.2-0.8-0.7-1.2-1.3l-22.4-34.4
					c0.1,0.8,0.1,1.5,0.1,2.3s0,1.4,0,2.1v31.7h-7v-51.7h4.2C334.6,483.7,334.9,483.7,335.2,483.7z"/>
				<path class="st0" d="M412.6,535.3h-6.2c-0.7,0-1.3-0.2-1.7-0.6s-0.8-0.9-1-1.6l-3.2-10.5h-17.7l-3.2,10.5
					c-0.2,0.5-0.5,1-0.9,1.5c-0.5,0.5-1,0.7-1.7,0.7h-6.2l16.8-51.7h8.1L412.6,535.3z M384.8,515.8h13.7l-5.2-17.2
					c-0.2-0.8-0.5-1.7-0.8-2.7s-0.6-2.2-0.8-3.4c-0.3,1.2-0.5,2.3-0.8,3.4c-0.3,1-0.5,2-0.8,2.8L384.8,515.8z"/>
				<path class="st0" d="M425,527.4h17.2v7.9H417v-51.7h8V527.4z"/>
				<path class="st0" d="M457.6,515.2v20.1h-8v-20.1L434,483.6h7c0.7,0,1.2,0.2,1.6,0.6s0.7,0.9,1,1.5l7.9,17.3c0.5,1,0.8,2,1.2,2.9
					s0.6,1.8,0.9,2.7c0.3-0.9,0.5-1.8,0.9-2.7s0.7-1.9,1.2-2.9l7.8-17.3c0.2-0.5,0.5-1,1-1.5c0.4-0.5,1-0.7,1.7-0.7h7.1L457.6,515.2
					z"/>
				<path class="st0" d="M511.3,483.7v7.9h-12.9v43.8h-8v-43.8h-12.9v-7.9L511.3,483.7L511.3,483.7z"/>
				<path class="st0" d="M523.9,535.3h-8v-51.7h8V535.3z"/>
				<path class="st0" d="M563,523.1c0.4,0,0.8,0.2,1.1,0.6l3.1,4.1c-1.7,2.6-3.9,4.6-6.4,6s-5.6,2.1-9.1,2.1c-3.2,0-6-0.7-8.6-2
					c-2.5-1.3-4.7-3.1-6.5-5.5c-1.8-2.3-3.2-5.1-4.1-8.4c-1-3.2-1.4-6.8-1.4-10.6c0-3.9,0.5-7.4,1.6-10.7c1.1-3.2,2.6-6,4.5-8.3
					s4.3-4.2,6.9-5.4c2.7-1.3,5.7-1.9,8.9-1.9s6,0.6,8.3,1.8c2.4,1.2,4.4,2.9,6.1,4.9l-2.7,4.5c-0.2,0.3-0.4,0.5-0.6,0.8
					c-0.2,0.2-0.6,0.3-1,0.3c-0.5,0-0.9-0.2-1.4-0.6s-1.1-0.9-1.8-1.4s-1.7-1-2.8-1.4s-2.5-0.6-4.3-0.6c-2,0-3.9,0.4-5.6,1.3
					c-1.7,0.8-3.1,2.1-4.4,3.6s-2.2,3.5-2.8,5.7s-1,4.8-1,7.6c0,2.9,0.3,5.5,1,7.8s1.6,4.2,2.8,5.7s2.5,2.7,4.1,3.6
					c1.6,0.8,3.3,1.2,5.1,1.2c1.1,0,2.1-0.1,2.9-0.2c0.9-0.1,1.7-0.4,2.4-0.7s1.4-0.7,2.1-1.2s1.3-1.1,2-1.8
					c0.2-0.2,0.4-0.4,0.6-0.5C562.5,523.2,562.7,523.1,563,523.1z"/>
				<path class="st0" d="M596.3,493.1c-0.2,0.5-0.5,0.9-0.8,1.1s-0.6,0.3-1,0.3s-0.8-0.2-1.3-0.6s-1.1-0.8-1.7-1.2
					c-0.7-0.5-1.5-0.9-2.4-1.2c-0.9-0.4-2-0.6-3.2-0.6c-1.1,0-2.1,0.2-2.9,0.5c-0.8,0.3-1.5,0.8-2.1,1.3c-0.6,0.6-1,1.3-1.3,2.1
					s-0.4,1.7-0.4,2.6c0,1.2,0.3,2.2,0.8,3c0.6,0.8,1.3,1.5,2.2,2.1s2,1.1,3.2,1.5c1.2,0.5,2.4,0.9,3.6,1.4c1.2,0.5,2.4,1.1,3.6,1.8
					c1.2,0.7,2.2,1.5,3.2,2.6s1.7,2.3,2.2,3.8c0.6,1.5,0.8,3.3,0.8,5.5c0,2.3-0.3,4.5-1,6.6c-0.7,2-1.6,3.8-2.9,5.3
					s-2.8,2.7-4.7,3.6s-3.9,1.3-6.3,1.3c-1.4,0-2.7-0.2-4-0.5s-2.6-0.8-3.8-1.4s-2.4-1.3-3.4-2.1c-1.1-0.8-2-1.8-2.8-2.8l2.3-4.6
					c0.2-0.3,0.5-0.6,0.8-0.8s0.6-0.3,1-0.3c0.5,0,1,0.2,1.6,0.7s1.2,1,2,1.6s1.7,1.1,2.8,1.6s2.3,0.7,3.8,0.7c2.3,0,4-0.6,5.3-1.9
					c1.2-1.3,1.9-3.2,1.9-5.6c0-1.4-0.3-2.5-0.8-3.3c-0.6-0.9-1.3-1.6-2.2-2.2c-0.9-0.6-2-1.1-3.2-1.5s-2.4-0.8-3.6-1.3
					s-2.4-1-3.6-1.7c-1.2-0.7-2.2-1.5-3.2-2.6c-0.9-1.1-1.7-2.4-2.2-4c-0.6-1.6-0.8-3.6-0.8-5.9c0-1.9,0.3-3.7,0.9-5.5
					c0.6-1.8,1.5-3.4,2.7-4.8s2.7-2.5,4.4-3.3s3.7-1.2,6-1.2c2.5,0,4.9,0.5,7,1.4c2.1,1,4,2.3,5.5,4L596.3,493.1z"/>
			</g>
		</g>
		<g>
			<path d="M201,553.4h2.1v14.9H201V553.4z"/>
			<path d="M231.1,553.4v14.9h-1.7l-9-11.1v11.1h-2.1v-14.9h1.7l9,11.1v-11.1H231.1z"/>
			<path d="M249.2,555.3h-5.1v-1.9h12.3v1.9h-5.1v13.1h-2.1L249.2,555.3L249.2,555.3z"/>
			<path d="M280.3,566.5v1.9h-10.8v-14.9H280v1.9h-8.4v4.6h7.5v1.8h-7.5v4.8L280.3,566.5L280.3,566.5z"/>
			<path d="M294.4,553.4h2.1v13.1h8.1v1.9h-10.2V553.4z"/>
			<path d="M317.7,553.4h2.1v13.1h8.1v1.9h-10.2V553.4z"/>
			<path d="M341,553.4h2.1v14.9H341V553.4z"/>
			<path d="M368.6,560.8h2v5.8c-0.7,0.6-1.6,1.1-2.6,1.4c-1,0.3-2,0.5-3.1,0.5c-1.5,0-2.9-0.3-4.1-1s-2.2-1.6-2.8-2.7
				c-0.7-1.2-1-2.5-1-3.9s0.3-2.8,1-3.9c0.7-1.2,1.6-2.1,2.9-2.7c1.2-0.7,2.6-1,4.1-1c1.2,0,2.3,0.2,3.3,0.6c1,0.4,1.8,1,2.5,1.7
				l-1.3,1.3c-1.2-1.2-2.6-1.7-4.3-1.7c-1.1,0-2.2,0.2-3.1,0.7s-1.6,1.2-2.1,2c-0.5,0.9-0.8,1.9-0.8,3s0.3,2.1,0.8,2.9
				c0.5,0.9,1.2,1.6,2.1,2.1s1.9,0.7,3,0.7c1.3,0,2.5-0.3,3.5-1V560.8z"/>
			<path d="M396.2,566.5v1.9h-10.8v-14.9h10.5v1.9h-8.4v4.6h7.5v1.8h-7.5v4.8L396.2,566.5L396.2,566.5z"/>
			<path d="M423.2,553.4v14.9h-1.7l-9-11.1v11.1h-2.1v-14.9h1.7l9,11.1v-11.1H423.2z"/>
			<path d="M440.9,567.5c-1.2-0.7-2.1-1.6-2.8-2.7c-0.7-1.2-1-2.5-1-3.9s0.3-2.8,1-3.9c0.7-1.2,1.6-2.1,2.8-2.7c1.2-0.7,2.6-1,4.1-1
				c1.2,0,2.2,0.2,3.2,0.6c1,0.4,1.8,1,2.5,1.7l-1.4,1.3c-1.1-1.2-2.5-1.8-4.2-1.8c-1.1,0-2.1,0.2-3,0.7s-1.6,1.2-2.1,2.1
				c-0.5,0.9-0.8,1.9-0.8,2.9c0,1.1,0.3,2.1,0.8,2.9c0.5,0.9,1.2,1.6,2.1,2.1s1.9,0.7,3,0.7c1.7,0,3.1-0.6,4.2-1.8l1.4,1.3
				c-0.7,0.8-1.5,1.3-2.5,1.7s-2,0.6-3.2,0.6C443.5,568.5,442.1,568.2,440.9,567.5z"/>
			<path d="M475.2,566.5v1.9h-10.8v-14.9h10.5v1.9h-8.4v4.6h7.5v1.8h-7.5v4.8L475.2,566.5L475.2,566.5z"/>
			<path d="M516,560.8h2v5.8c-0.7,0.6-1.6,1.1-2.6,1.4c-1,0.3-2,0.5-3.1,0.5c-1.5,0-2.9-0.3-4.1-1s-2.2-1.6-2.8-2.7
				c-0.7-1.2-1-2.5-1-3.9s0.3-2.8,1-3.9c0.7-1.2,1.6-2.1,2.9-2.7c1.2-0.7,2.6-1,4.1-1c1.2,0,2.3,0.2,3.3,0.6c1,0.4,1.8,1,2.5,1.7
				l-1.3,1.3c-1.2-1.2-2.6-1.7-4.3-1.7c-1.1,0-2.2,0.2-3.1,0.7s-1.6,1.2-2.1,2c-0.5,0.9-0.8,1.9-0.8,3s0.3,2.1,0.8,2.9
				c0.5,0.9,1.2,1.6,2.1,2.1s1.9,0.7,3,0.7c1.3,0,2.5-0.3,3.5-1V560.8z"/>
			<path d="M534.3,566.8c-1.1-1.1-1.7-2.8-1.7-4.9v-8.5h2.1v8.4c0,3.2,1.4,4.8,4.2,4.8c1.4,0,2.4-0.4,3.1-1.2c0.7-0.8,1.1-2,1.1-3.6
				v-8.4h2.1v8.5c0,2.1-0.6,3.8-1.7,4.9c-1.1,1.1-2.7,1.7-4.6,1.7S535.5,568,534.3,566.8z"/>
			<path d="M570.3,568.4l-3.2-4.6c-0.4,0-0.7,0-0.9,0h-3.7v4.5h-2.1v-14.9h5.8c1.9,0,3.5,0.5,4.6,1.4s1.7,2.2,1.7,3.8
				c0,1.2-0.3,2.1-0.9,2.9c-0.6,0.8-1.4,1.4-2.4,1.8l3.5,5L570.3,568.4L570.3,568.4z M569.2,561.1c0.7-0.6,1.1-1.4,1.1-2.5
				s-0.4-1.9-1.1-2.5c-0.7-0.6-1.7-0.9-3.1-0.9h-3.6v6.7h3.6C567.4,562,568.5,561.7,569.2,561.1z"/>
			<path d="M588,566.8c-1.1-1.1-1.7-2.8-1.7-4.9v-8.5h2.1v8.4c0,3.2,1.4,4.8,4.2,4.8c1.4,0,2.4-0.4,3.1-1.2c0.7-0.8,1.1-2,1.1-3.6
				v-8.4h2.1v8.5c0,2.1-0.6,3.8-1.7,4.9c-1.1,1.1-2.7,1.7-4.6,1.7C590.7,568.5,589.1,568,588,566.8z"/>
		</g>
	</g>
	<g>
		<path d="M287.8,233.5c0,0,24.4,4,28.7,40.3c0,25.2,0,48.6,0,76.9c0,6.8,0,48.4,0,59.3l0,0v0.7c0,0.2,0,0.4,0,0.6l0,0v10.8
			c59-18.9,93.8,28,97.5,33.3c-30.2-44.6-68.7-48.2-87-46.9c-0.6-6.3,5-27,21.7-43.6c0.5-0.4,1.2-0.8,1.4-1.5
			c-0.3-0.2-0.6-0.3-0.9-0.4c-1-0.4-2.2-0.4-3.3-0.6c-1.7-0.3-2.8-1.8-2.9-3.5c0-0.7,0.1-1.4,0.4-2c0.6-1.5,1.7-2.6,3-3.5
			c1.7-1.1,3.4-2.2,5.1-3.3c2.5-1.8,4.6-4,5.9-6.8c0.2-0.5,0.6-1,0.4-1.6c-0.2,0.1-0.3,0.1-0.3,0.2c-3.2,3.4-7.2,5.6-11.5,7.2
			c-1.9,0.7-3.8,1.8-5.3,3.2c-2.4,2.2-3.8,4.8-3.6,8c0,0.3,0.1,0.7-0.2,1.1c-1-2-1.2-4-0.8-6c0.7-3.4,2.6-6,5.3-8.1
			c1.6-1.3,3.3-2.4,4.9-3.5c2.2-1.6,4-3.6,5.2-6c2.3-4.4,2.7-8.9-0.3-13.5c-0.7-1.1-1.4-2.3-2-3.5c-4-6.9-6.3-14.7-6.4-22.7
			c-0.1-11.8,4-21.9,12.7-30.1c0.2-0.2,0.7-0.4,0.6-0.9c-6.5-2.4-10.5-7.6-10.8-14.2v-0.1c-0.4-8.1,4.3-15.7,11.7-19.1
			c0.1-0.1,0.2-0.1,0.3-0.2C344.3,233.6,287.8,233.5,287.8,233.5z"/>
		<path d="M510.1,321.2c-2.3-12.7-6.6-24.7-13.1-35.8c-10.3-17.7-24.7-31-43.2-40c-16.6-8.1-34.2-11.7-52.5-11.7
			c-7.6,0-15.3-0.1-22.9-0.1c7.8,2.8,13.3,7.5,13.3,7.9c-11.4-6.3-24.3,2.5-28.1,9c-0.1,0.1-0.1,0.3,0.1,0.4
			c0.3-0.3,0.6-0.6,0.9-0.9c3.3-3.1,7-5.4,11.2-6.8c2.9-0.9,5.9-1.4,9-0.9c2.4,0.4,4.6,1.4,6.1,3.4c0.2,0.3,0.5,0.6,0.2,1
			c-4.4,0-8.7,1-12.8,2.9c-4,1.9-7.7,4.2-10.7,8c0.9-0.1,1.3-0.4,1.7-0.7c1.8-0.9,3.5-1.9,5.3-2.7c4-1.8,8.1-3.1,12.5-3.7
			c5-0.7,10.1-0.7,15.1,0c6.9,0.9,13.4,2.9,19.5,6.3c5.2,2.9,9.5,6.8,12.4,12.4c1.2,2.4,1.6,5.1,1.4,7.8c0,0.5-0.2,1-0.8,1.2
			c0.4-0.1,0.5,0.2,0.7,0.5c2.3,3,3.5,6.7,4.8,10.3c1.2,3.2,2.1,6.5,2.7,9.8c0.5,3,0.9,6.2-0.7,9c-0.3,0.5-0.1,0.9,0.1,1.3
			c0.8,1.8,1.5,3.5,2.2,5.3c1.8,4.5,3.8,9,5.3,13.6c1.1,3.5-1,7-4.4,8.3c-0.1,0-0.2,0.1-0.2,0.1c-0.8,0.1-0.9,0.6-0.6,1.3
			c0.1,0.2,0.1,0.4,0.2,0.6c0.6,3.1,0.1,5.9-2.5,8.1c-1.4,0.3-2.5,0.1-1.2,0.7s1.8,2.3,0.9,3.5l0,0c-1.4,1.7-1.3,3.5-0.2,5.3
			c0.8,1.3,1.7,2.6,2.6,3.8c2.4,3.6,4,7.5,4.6,11.8c0.6,4.5,0.2,8.8-1.7,13c-0.4,0.8-0.8,1.7-1.4,2.3c-0.5-0.1-0.1-0.7-0.7-0.6
			c-0.1,0.4-0.2,0.8-0.3,1.2c-2.8,9-9.1,14.4-17.8,17.3c-0.9,0.3-1,0.2-1-0.8c0-4.2-1.3-8.3-3.8-11.7c-2.1-2.9-4.8-5.1-7.6-7.4
			c-3.8-3.1-7.2-6.4-10.1-10.4c-0.2-0.2-0.3-0.5-0.7-0.6c-0.5,12.3,26.5,41.4,30.8,51.4c3.1,7.2,5.2,14.5,5,22.4
			c0,0.2,0,0.4,0.2,0.6c68.1-9.8,71.9-83.9,72.4-96.4C512.5,341.8,512,331.4,510.1,321.2z"/>
		<path d="M386.1,420c0-0.1-0.2-0.3-0.4-0.6c-0.4-0.1-0.9-0.3-1.4-0.4C385.2,419.5,385.8,419.9,386.1,420z"/>
		<path d="M414,455.5c0.1,0.2,0.2,0.3,0.3,0.5C414.3,456,414.2,455.8,414,455.5z"/>
	</g>
</g>
</svg>
