<?xml version="1.0" encoding="utf-8"?>
<!-- Generator: Adobe Illustrator 28.0.0, SVG Export Plug-In . SVG Version: 6.00 Build 0)  -->
<svg version="1.1" id="Layer_1" xmlns="http://www.w3.org/2000/svg" xmlns:xlink="http://www.w3.org/1999/xlink" x="0px" y="0px"
	 viewBox="0 0 800 800" style="enable-background:new 0 0 800 800;" xml:space="preserve">
<g>
	<g>
		<g>
			<path d="M93,517.5v-2.9c6.1,0.3,11.1,0.4,15.1,0.4c3,0,7.2-0.1,12.6-0.2c3.9-0.1,7.1-0.2,9.8-0.2c4.9,0,8.8,0.6,11.7,1.9
				c4,1.7,7.1,4.4,9.4,8c2.3,3.6,3.4,8.2,3.4,13.9c0,6.3-1.5,12-4.4,16.9s-7.1,8.8-12.5,11.5c-4.5,2.3-9.9,3.5-16.3,3.5
				c-0.6,0-3-0.1-7.3-0.3c-4.3-0.2-6.7-0.3-7.2-0.3c-1.8,0-6.6,0.2-14.2,0.5v-2.9l1.7-0.3c3.4-0.6,5.5-1.2,6-1.7
				c0.6-0.5,0.9-1.3,1-2.3c0.1-1.5,0.2-9.4,0.2-23.8c0-10.5-0.1-16.5-0.3-17.8c-0.1-0.9-0.5-1.6-1-2c-0.5-0.4-2.5-0.9-6-1.6
				L93,517.5z M114,565c3.2,0.5,5.8,0.8,8,0.8c6,0,10.5-1.8,13.6-5.3c3.9-4.5,5.8-11.1,5.8-19.8c0-7.4-1.7-13.1-5.2-16.9
				c-2.8-3.1-7.2-4.7-13.1-4.7c-2.5,0-5.5,0.2-9.1,0.7c-0.3,4.1-0.4,11.6-0.4,22.7C113.6,548.9,113.8,556.4,114,565z"/>
			<path d="M158.6,517.5v-2.9c8.8,0.3,14.1,0.4,15.7,0.4c1.7,0,4.2,0,7.4-0.1c3.2-0.1,5.6-0.1,7.1-0.1c3.9,0,6.9,0.5,9.1,1.5
				c2.2,1,3.9,2.6,5.2,4.7c1.3,2.2,2,4.6,2,7.3c0,2.3-0.5,4.5-1.4,6.6c-0.9,2.1-2.2,3.9-3.8,5.4c-1,1-2.7,2-4.9,3.1
				c1.8,3.1,4.4,7.4,7.8,13c2.5,4.1,4.1,6.6,4.9,7.4c0.8,0.8,1.6,1.4,2.5,1.9c1.4,0.6,3.8,1.2,7.4,1.8v2.9
				c-4.4-0.3-8.1-0.4-10.8-0.4c-3,0-6.6,0.1-10.9,0.4c-3.2-7.3-7.3-15.7-12.3-25.2c-1.5-0.1-3.1-0.2-4.7-0.3l0.2,16.3
				c0.1,2,0.2,3.3,0.5,3.7c0.3,0.5,0.7,0.8,1.2,1c0.4,0.2,2.7,0.7,7,1.5v2.9c-6.1-0.3-11-0.4-14.7-0.4c-3.6,0-8.5,0.1-14.5,0.4v-2.9
				c4.4-0.8,6.9-1.4,7.5-1.9c0.6-0.4,0.9-1.3,1.1-2.6c0.1-0.7,0.1-7.4,0.2-20.1l0-11.7c0-5.5-0.1-8.8-0.3-9.9
				c-0.2-0.8-0.5-1.4-1.1-1.8c-0.6-0.4-2.4-0.9-5.5-1.4L158.6,517.5z M179,540.3c1.3,0.1,2.3,0.1,2.9,0.1c3.7,0,6.4-0.9,8.1-2.6
				c1.7-1.7,2.6-4.4,2.6-7.9c0-3.3-0.8-5.9-2.5-7.7c-1.7-1.8-3.9-2.6-6.7-2.6c-1.2,0-2.6,0.1-4.5,0.3L179,540.3z"/>
			<path d="M216.1,543.3c0-9,2.8-16.2,8.3-21.7c5.5-5.5,12.9-8.2,22.1-8.2c8.7,0,15.6,2.5,20.6,7.4c5,4.9,7.5,11.5,7.5,19.8
				c0,5.3-1,10-2.9,14.4c-1.5,3.4-3.5,6.3-6,8.7s-4.9,4.1-7.5,5.3c-3.8,1.7-8.4,2.5-13.8,2.5c-8.9,0-15.9-2.5-20.8-7.4
				C218.6,559.1,216.1,552.2,216.1,543.3z M229.7,541.2c0,9.5,1.7,16.5,5.2,21c2.6,3.3,6.2,5,11,5c3.3,0,6.1-0.8,8.3-2.5
				c2.3-1.7,4-4.4,5.1-8.2c1.1-3.8,1.7-8.1,1.7-13.1c0-3.8-0.3-7.4-1-10.9c-0.7-3.5-1.6-6.2-2.8-8.2s-2.8-3.5-4.7-4.7
				c-2-1.2-4.4-1.8-7.2-1.8c-3.1,0-5.9,0.9-8.3,2.6c-2.4,1.7-4.3,4.5-5.5,8.2C230.3,532.3,229.7,536.5,229.7,541.2z"/>
			<path d="M278.2,517.5v-2.9c3.6,0.3,6.9,0.4,10,0.4c3.1,0,6.8-0.1,11-0.4c3.2,4.3,12.8,16.1,28.7,35.6l-0.2-21.3
				c-0.1-5.2-0.3-8.1-0.6-8.7c-0.3-0.6-0.7-1-1.4-1.4c-0.6-0.3-2.8-0.8-6.6-1.3v-2.9c4.2,0.3,7.9,0.4,11,0.4c3,0,6.9-0.1,11.6-0.4
				v2.9c-0.8,0.2-1.4,0.3-1.8,0.3c-3.1,0.5-4.9,1-5.5,1.5c-0.6,0.6-1,1.7-1.1,3.5c-0.3,3.7-0.4,11.2-0.4,22.6
				c0,7.3,0.1,15.7,0.4,25.1c-1.2,0.4-2.4,0.8-3.6,1.3L315,553.1l-22.7-27.6l0.2,18.7l0.3,18.1c0.1,1.4,0.2,2.2,0.4,2.6
				c0.2,0.4,0.4,0.6,0.8,0.8c0.6,0.3,2.4,0.8,5.6,1.4c0.4,0.1,0.9,0.2,1.6,0.3v2.9c-4.5-0.3-8.1-0.4-10.8-0.4
				c-2.3,0-6.3,0.1-11.9,0.4v-2.9c0.8-0.2,1.4-0.3,1.8-0.4c3-0.5,4.8-0.9,5.4-1.4c0.4-0.3,0.6-0.7,0.8-1.2c0.2-0.5,0.3-4.4,0.5-11.7
				c0.3-10.5,0.4-19.5,0.4-27c0-2.5-0.1-4.1-0.4-4.8c-0.3-0.7-0.8-1.3-1.5-1.6c-0.7-0.4-2.5-0.8-5.4-1.4
				C279.7,517.8,279.1,517.7,278.2,517.5z"/>
			<path d="M374.4,570.3v-2.9c3.2-0.6,5-1,5.5-1.4c0.5-0.4,0.7-0.9,0.7-1.5c0-0.4-0.1-0.8-0.2-1.3c-0.4-1.1-1.8-4.4-4.1-9.9
				c-3.7-0.1-6.7-0.1-9.2-0.1c-2,0-5.4,0-10.1,0.1c-2.9,6.9-4.4,10.6-4.4,11.3c0,0.6,0.2,1.1,0.6,1.4c0.4,0.3,2.3,0.8,5.6,1.4v2.9
				c-3.3-0.3-6.4-0.4-9.4-0.4c-3.2,0-6.5,0.1-9.9,0.4v-2.9c2.4-0.5,4-1.1,4.9-1.7c0.6-0.4,1.1-1,1.6-1.9c1-1.6,4.1-8,9.2-19.1
				c3.2-7,7.8-17.4,13.8-31.2h3.1c2.4,6.1,7.5,17.6,15.1,34.4c4.2,9.3,6.8,14.6,7.6,15.9c0.6,0.9,1.1,1.5,1.7,1.9
				c0.6,0.4,2.4,0.9,5.4,1.7v2.9c-4.6-0.3-8.9-0.4-12.9-0.4C385.2,569.8,380.3,570,374.4,570.3z M366.9,530.3l-8,18.5l7.8,0
				c1.9,0,4.5,0,8,0L366.9,530.3z"/>
			<path d="M410.7,517.5v-2.9c6.7,0.3,11.9,0.4,15.6,0.4c3.8,0,8.9-0.1,15.2-0.4v2.9c-5.4,0.8-8.3,1.3-8.8,1.6
				c-0.8,0.4-1.2,1.6-1.2,3.4l-0.2,10.1v32.6h14.3c2.4,0,3.9-0.2,4.7-0.5c1.1-0.4,2.1-1.2,3.1-2.4c1-1.1,2.8-3.8,5.3-8h3.5
				c-1.8,4.8-3.5,10.1-5.1,15.9c-11.1-0.3-20.3-0.4-27.7-0.4c-6,0-12.3,0.1-18.8,0.4v-2.9c4.6-0.9,7.2-1.5,7.7-1.9
				c0.5-0.3,0.8-1,0.9-1.9c0.1-0.9,0.2-7.2,0.2-18.8l0-14.3V528c0-4.2-0.1-6.7-0.4-7.5c-0.2-0.6-0.6-1.1-1.1-1.3
				C417.4,518.9,415,518.4,410.7,517.5z"/>
			<path d="M455.7,517.5v-2.9l7.7,0.3c3.5,0.1,5.6,0.2,6.3,0.2c2.6,0,7.3-0.1,14.1-0.4v2.9c-3,0.7-4.7,1.2-5.2,1.5
				c-0.5,0.4-0.7,0.7-0.7,1.1c0,0.4,0.2,1,0.6,1.6c0.9,1.5,2.5,4.2,4.6,8.1c2.1,3.8,4.3,7.5,6.4,11l11-20.1c0.3-0.5,0.4-0.9,0.4-1.1
				c0-0.4-0.2-0.7-0.6-0.9c-0.4-0.3-2.1-0.7-5.2-1.3v-2.9l1.9,0.1c4.3,0.2,7.3,0.3,8.7,0.3c1.6,0,5-0.1,10.2-0.4v2.9
				c-3.4,0.7-5.6,1.3-6.7,2c-1.1,0.7-2.2,1.9-3.4,3.6c-0.8,1.1-5.5,8.8-14.1,23.1v14.1c0,2.3,0.2,3.7,0.4,4.2c0.2,0.5,0.7,1,1.4,1.3
				c0.4,0.2,2.3,0.6,5.6,1.3l1.3,0.2v2.9c-7.1-0.3-12-0.4-14.6-0.4c-1.9,0-6.9,0.1-15.1,0.4v-2.9c0.8-0.2,1.5-0.3,1.9-0.3
				c2.8-0.4,4.6-0.8,5.4-1.3c0.5-0.3,0.9-0.8,1.2-1.4c0.2-0.7,0.4-2.6,0.4-5.8V547c-1.8-2.7-4.3-6.8-7.7-12.3
				c-4.4-7.1-7.1-11.3-8-12.6c-0.9-1.3-1.9-2.2-2.9-2.8C460.2,518.7,458.4,518.1,455.7,517.5z"/>
			<path d="M568.6,531.1H565c-1.8-5.5-2.9-8.6-3.3-9.4c-0.4-0.7-1-1.2-1.7-1.5c-0.7-0.3-3.1-0.5-7-0.5h-3.8v36.6
				c0,4.5,0.2,7.3,0.5,8.2c0.2,0.5,0.5,0.9,1.2,1.2c0.6,0.3,3,0.8,7.1,1.5v2.9c-8-0.3-13.1-0.4-15.4-0.4c-3.1,0-7.8,0.1-14.2,0.4
				v-2.9c4.2-0.7,6.7-1.3,7.4-1.7c0.5-0.3,0.9-0.8,1.1-1.4c0.2-0.7,0.3-3.4,0.3-8.2v-36.2h-6.6c-2.2,0-3.7,0.2-4.4,0.5
				c-0.7,0.4-1.3,1-1.8,2c-0.7,1.5-1.7,4.4-3,8.8h-3.6c0.4-3.8,0.7-6.5,0.8-8c0.1-1.5,0.2-4.3,0.4-8.5c10.4,0.3,20.5,0.4,30.3,0.4
				c8.4-0.1,14.4-0.2,18-0.4C567.5,519.7,567.9,525.2,568.6,531.1z"/>
			<path d="M603.8,514.6v2.9l-1.5,0.2c-3.5,0.4-5.6,0.9-6.3,1.6c-0.7,0.6-1,1.8-1,3.6v1.4l-0.1,13.1l0,15l0,7.6
				c0,2.2,0.1,3.7,0.3,4.2c0.2,0.6,0.6,1,1.2,1.3c0.9,0.5,2.9,1,5.8,1.5c0.3,0.1,0.8,0.1,1.5,0.2v2.9c-5.4-0.3-10.1-0.4-14.2-0.4
				c-3.9,0-9,0.1-15.4,0.4v-2.9c4.1-0.8,6.3-1.2,6.7-1.4c0.6-0.2,1.1-0.6,1.4-1c0.4-0.6,0.6-1.8,0.6-3.7c0.1-4.3,0.1-11.7,0.1-22.2
				l-0.1-14.3v-1.2c0-2.1-0.3-3.4-0.9-4c-0.6-0.6-2.6-1.2-6.1-1.8c-0.4-0.1-1-0.2-1.7-0.4v-2.9c6.7,0.3,11.8,0.4,15.1,0.4
				C593,515.1,597.8,514.9,603.8,514.6z"/>
			<path d="M658.9,559.5l2,3.8c-4.5,3-8.7,5.1-12.5,6.3c-3.8,1.2-7.8,1.9-12,1.9c-8.8,0-15.8-2.5-20.8-7.5c-5.1-5-7.6-11.8-7.6-20.3
				c0-9,2.8-16.3,8.5-21.8c5.7-5.5,13.6-8.3,23.6-8.3c3.2,0,6.3,0.3,9.3,0.8c3,0.5,6.7,1.5,11.1,2.8c-0.2,1.7-0.2,3.5-0.2,5.3
				c0,3.2,0.2,7,0.6,11.6h-4.3c-1.3-5-2.2-8-2.6-8.8c-1-2-2.6-3.6-4.8-5c-2.2-1.4-5.2-2-9-2c-5.7,0-10.1,1.8-13.3,5.3
				c-3.8,4.2-5.6,10-5.6,17.4c0,7.7,1.9,13.5,5.6,17.5c3.8,4,8.8,6,15.2,6C647.8,564.4,653.4,562.7,658.9,559.5z"/>
			<path d="M704.6,530.5h-3.9c-0.9-5-2.2-8.4-3.9-10.1c-1.8-1.7-4.1-2.6-7.1-2.6c-2.7,0-4.8,0.7-6.3,2.1c-1.5,1.4-2.3,3.2-2.3,5.3
				c0,1.9,0.7,3.7,2.1,5.3c1.4,1.6,4.7,3.6,9.9,5.9c5.2,2.4,8.8,4.8,10.9,7.4c2.1,2.6,3.1,5.9,3.1,9.8c0,4.7-1.8,8.8-5.3,12.4
				c-3.5,3.5-9.3,5.3-17.2,5.3c-2.8,0-5.5-0.2-8-0.6c-1.9-0.3-4.3-0.9-7.1-1.8c0.4-4.6,0.7-9.1,0.7-13.6v-2.6h3.8
				c1,5.2,2.2,8.7,3.7,10.4c2,2.4,4.7,3.6,8.2,3.6c2.8,0,5-0.8,6.7-2.5c1.7-1.6,2.5-3.8,2.5-6.3c0-1.6-0.3-3.1-1-4.3
				c-0.7-1.3-1.7-2.4-3.1-3.4c-1.4-1-3.9-2.4-7.5-4c-5.5-2.6-9.3-5.1-11.1-7.6c-1.9-2.4-2.8-5.2-2.8-8.5c0-4.8,1.8-8.8,5.3-12
				c3.6-3.2,8.7-4.7,15.4-4.7c4.4,0,9.3,0.9,14.5,2.5c-0.2,4.1-0.2,7-0.2,8.5C704.4,526.4,704.4,528.4,704.6,530.5z"/>
		</g>
	</g>
	<g>
		<path d="M157.9,588.8v21.6h-3.5v-21.6H157.9z"/>
		<path d="M192.6,610.3h-3.5l-10.6-16.1v16.1h-3.5v-21.6h3.5l10.6,16.1v-16.1h3.5V610.3z"/>
		<path d="M223.6,588.8v2.9h-5.7v18.7h-3.5v-18.7h-5.8v-2.9H223.6z"/>
		<path d="M243.1,591.6v6.3h7.4v2.9h-7.4v6.6h8.4v2.9h-11.9v-21.6h11.9v2.9H243.1z"/>
		<path d="M271.8,607.5h7.3v2.9h-10.8v-21.6h3.5V607.5z"/>
		<path d="M298,607.5h7.3v2.9h-10.8v-21.6h3.5V607.5z"/>
		<path d="M324.2,588.8v21.6h-3.5v-21.6H324.2z"/>
		<path d="M356.9,595c-0.6-1.1-1.3-1.9-2.3-2.4c-1-0.5-2.1-0.8-3.4-0.8c-1.4,0-2.7,0.3-3.8,1c-1.1,0.6-2,1.6-2.6,2.7
			c-0.6,1.2-0.9,2.5-0.9,4.1s0.3,2.9,0.9,4.1c0.6,1.2,1.5,2.1,2.6,2.7s2.4,1,3.8,1c1.9,0,3.5-0.5,4.7-1.6c1.2-1.1,1.9-2.5,2.2-4.4
			h-8.1v-2.8h11.9v2.8c-0.2,1.7-0.8,3.2-1.8,4.6c-1,1.4-2.2,2.5-3.8,3.4c-1.5,0.8-3.3,1.3-5.1,1.3c-2,0-3.9-0.5-5.6-1.4
			c-1.7-0.9-3-2.2-4-3.9c-1-1.7-1.5-3.6-1.5-5.7c0-2.1,0.5-4,1.5-5.7c1-1.7,2.3-3,4-3.9c1.7-0.9,3.5-1.4,5.5-1.4
			c2.3,0,4.3,0.6,6.1,1.7s3.1,2.7,3.9,4.8H356.9z"/>
		<path d="M381.2,591.6v6.3h7.4v2.9h-7.4v6.6h8.4v2.9h-11.9v-21.6h11.9v2.9H381.2z"/>
		<path d="M424,610.3h-3.5l-10.6-16.1v16.1h-3.5v-21.6h3.5l10.6,16.1v-16.1h3.5V610.3z"/>
		<path d="M441.4,593.8c1-1.7,2.3-3,4-3.9c1.7-0.9,3.5-1.4,5.5-1.4c2.3,0,4.3,0.6,6.1,1.7s3.1,2.7,3.9,4.8h-4.3
			c-0.6-1.1-1.3-2-2.3-2.5c-1-0.6-2.1-0.8-3.4-0.8c-1.4,0-2.7,0.3-3.8,1c-1.1,0.6-2,1.6-2.6,2.8c-0.6,1.2-0.9,2.6-0.9,4.2
			c0,1.6,0.3,3,0.9,4.2c0.6,1.2,1.5,2.1,2.6,2.8c1.1,0.7,2.4,1,3.8,1c1.3,0,2.5-0.3,3.4-0.8c1-0.6,1.8-1.4,2.3-2.5h4.3
			c-0.8,2.1-2.1,3.7-3.9,4.8c-1.8,1.1-3.8,1.7-6.1,1.7c-2,0-3.9-0.5-5.6-1.4c-1.7-0.9-3-2.2-4-3.9c-1-1.7-1.5-3.6-1.5-5.7
			C439.9,597.4,440.4,595.5,441.4,593.8z"/>
		<path d="M481,591.6v6.3h7.4v2.9H481v6.6h8.4v2.9h-11.9v-21.6h11.9v2.9H481z"/>
		<path d="M540.6,595c-0.6-1.1-1.3-1.9-2.3-2.4c-1-0.5-2.1-0.8-3.4-0.8c-1.4,0-2.7,0.3-3.8,1c-1.1,0.6-2,1.6-2.6,2.7
			c-0.6,1.2-0.9,2.5-0.9,4.1s0.3,2.9,0.9,4.1c0.6,1.2,1.5,2.1,2.6,2.7c1.1,0.6,2.4,1,3.8,1c1.9,0,3.5-0.5,4.7-1.6
			c1.2-1.1,1.9-2.5,2.2-4.4h-8.1v-2.8h11.9v2.8c-0.2,1.7-0.8,3.2-1.8,4.6c-1,1.4-2.2,2.5-3.8,3.4c-1.5,0.8-3.3,1.3-5.1,1.3
			c-2,0-3.9-0.5-5.6-1.4c-1.7-0.9-3-2.2-4-3.9c-1-1.7-1.5-3.6-1.5-5.7c0-2.1,0.5-4,1.5-5.7c1-1.7,2.3-3,4-3.9
			c1.7-0.9,3.5-1.4,5.5-1.4c2.3,0,4.3,0.6,6.1,1.7s3.1,2.7,3.9,4.8H540.6z"/>
		<path d="M564.9,588.8v13.7c0,1.6,0.4,2.9,1.3,3.7c0.9,0.8,2.1,1.2,3.6,1.2c1.6,0,2.8-0.4,3.6-1.2c0.9-0.8,1.3-2.1,1.3-3.7v-13.7
			h3.5v13.7c0,1.8-0.4,3.2-1.1,4.5c-0.8,1.2-1.8,2.1-3.1,2.7c-1.3,0.6-2.7,0.9-4.3,0.9s-3-0.3-4.2-0.9c-1.3-0.6-2.3-1.5-3-2.7
			c-0.7-1.2-1.1-2.7-1.1-4.5v-13.7H564.9z"/>
		<path d="M606.5,610.3l-5-8.6h-2.7v8.6h-3.5v-21.6h7.4c1.7,0,3.1,0.3,4.2,0.9c1.1,0.6,2,1.4,2.6,2.3c0.6,1,0.9,2.1,0.9,3.3
			c0,1.4-0.4,2.7-1.2,3.8c-0.8,1.1-2.1,1.9-3.8,2.3l5.3,8.9H606.5z M598.8,598.9h3.9c1.3,0,2.3-0.3,3-1c0.7-0.7,1-1.6,1-2.7
			c0-1.1-0.3-2-1-2.6c-0.7-0.6-1.7-0.9-3-0.9h-3.9V598.9z"/>
		<path d="M630.8,588.8v13.7c0,1.6,0.4,2.9,1.3,3.7c0.9,0.8,2.1,1.2,3.6,1.2c1.6,0,2.8-0.4,3.6-1.2c0.9-0.8,1.3-2.1,1.3-3.7v-13.7
			h3.5v13.7c0,1.8-0.4,3.2-1.1,4.5c-0.8,1.2-1.8,2.1-3.1,2.7c-1.3,0.6-2.7,0.9-4.3,0.9c-1.6,0-3-0.3-4.2-0.9c-1.3-0.6-2.3-1.5-3-2.7
			c-0.7-1.2-1.1-2.7-1.1-4.5v-13.7H630.8z"/>
	</g>
	<rect x="652.1" y="598.4" width="55" height="2.3"/>
	<rect x="93" y="598.4" width="51.8" height="2.3"/>
	<g>
		<path d="M460.5,293.7c0.5-0.1,0.7-0.6,0.7-1c0.2-2.8-0.3-5.5-2.3-7.8c-1.7,2.9-1.5,6.1,0.4,8.2C459.7,293.4,460,293.8,460.5,293.7
			z"/>
		<path d="M356,455.6c-3.2-2.2-4.8-5.1-4.8-9c0.1-4.6,0.2-9.1,0.1-13.7c-0.2-6.9,0-13.8-0.1-20.7c0-1.8,0.7-2.6,2.4-3
			c18.3-2.4,54.4,26.2,66.7,37.2c7.1-3.6,15.9-8.4,24.3-13.8c-7.6-14.3-20.1-30.6-25.8-39.1c0.7,0.5,1.1,0.7,1.4,1
			c9.3,8.6,17.3,18.2,24,28.9c1.4,2.2,2.8,4.5,4.1,6.8c2.7-1.8,5.3-3.6,7.7-5.5c-3.5-12.5-10.5-23-19.6-32.2
			c-2.3-2.3-3.3-4.7-3.4-7.7c0-1-0.1-2,0-3c0.2-1.7-0.5-3.4-1.8-4.6c-1.8-1.8-3.4-3.7-4.1-6.3c4.3,3.8,9.1,6.9,14,9.8
			c1.3,0.8,2.6,1.6,3.7,2.6c3.9,3.4,6.2,7.4,5.2,12.5c-0.1,0.5-0.3,1.1,0.5,1.9c11.2-6.3,15-16.1,13.2-28.9c2,2.2,2,4.8,3,7.1
			c0.3-0.4,0.5-0.6,0.6-0.7c0.1-0.4,0.1-0.9,0.2-1.3c0.6-6.9-1.5-13-5.7-18.4c-2.4-3-4.4-5.9-1.1-9.8c-3.1-0.4-6,0.1-8.3-2.1
			c2.6-2.1,3-2.2,6.6-2.3c2.8,0,4.1-1.1,4.7-3.8c0.3-1.3,0.2-2.6-0.4-3.6c-0.8-1.6-0.5-2.2,1.3-2.8c4.4-1.3,5.1-3.1,3.4-7.4
			c-1.7-4.2-3.4-8.4-5.1-12.6c-1.2-2.9-2.8-5.7-1.1-9c0.1-0.2,0.1-0.4,0.1-0.7c0-0.5-0.1-1-0.7-1c-3.4-0.2-6.1-2.2-8.9-3.7
			c-5.3-3-10.4-2.4-15.3,0.8c-0.6,0.4-1.3,0.7-1.4,1.6c1.6-0.2,3.1-0.4,4.5-0.6c3.8-0.4,7.2,0.5,10.1,3c0.7,0.6,1.3,1.3,1,2.3
			c-0.3,1-1.2,0.9-2,0.9c-1.5,0-2.9,0-4.4,0c-2,0-4.1,0-6.6,0.9c2.9,1.4,5.4,2.6,7.9,3.8c0.8,0.4,1.8,0.6,2.4,1.2
			c0.8,0.7-0.6,1.8,0,2.9c1.8-0.8,2.9-2,3.5-3.6c0.7-2,2.2-3.1,4-3.9c1.2-0.6,2.7-0.1,3.3,1.1c0.8,1.6,1.5,3.2,2.2,4.9
			c1.7,4.3,3.4,8.6,5.2,12.9c0.8,1.9-0.6,3.4-2.4,3.4c-0.9,0-1.8-0.3-2.7-0.5c-1.9-0.4-3.8-0.6-5.7,0.2c-1.2,0.5-2.2,0.6-2.9-0.6
			c-0.7-1.1-0.3-2.7,0.9-3.6c0.7-0.5,1.5-0.8,2.4-1.2c-4.5-0.6-6.9,2-6,6.1c0.2,0.9,0.8,1.7-0.5,2.2c-3.8,1.5-6.7,4.1-9.1,7.4
			c-0.7,1-1.3,0.9-2.3,0.4c-2.9-1.8-4.9-4.3-5.5-7.8c-0.6-3.7-2-7-4.3-9.8c-1.3-1.6-2.7-3-4.1-4.5c-5.7-6.3-5.8-13.6-0.3-20.3
			c0.7-0.9,1.5-1.8,2.1-2.7c1.7-2.8,2.7-5.7,2.2-9.8c-3.3,4.4-7.2,7.2-12,8c-4.8,0.8-9.4,0-13.9-3.1c12.2,1.2,20-2.5,23-10.9
			c-2.3,0.5-4.5,1.7-7.2,1.8c6.6-5.2,13.3-9.3,21.9-9.1c-6.8-3.7-12.9-8.5-20.3-10.9c6.8-0.3,13,2,19.1,4.4
			c6.2,2.5,12.3,5.1,16.4,10.7c1-1.1,0.7-2.1,0.6-2.9c-1-7.1-5-12.4-10.7-16.2c-14.5-9.5-30.2-10.4-46.5-5.4c-2,0.6-3.9,1.5-5.9,2.2
			c2.8-3,6.4-4.5,10.1-5.8c3.8-1.4,7.8-1.5,12.2-1.7c-3-4.8-7.1-5.8-11.7-5.6c-5.7,0.3-10.7,2.5-15.3,5.8c-0.9,0.6-1.6,1.6-3.1,1.9
			c2.1-4.2,5.3-7,9-9.1c5.8-3.4,12-4.5,19.2-2c-1.1-2.9-2.5-4.7-4.2-6.2c-5.2-4.8-11.4-6.7-18.4-6.4c-10.9,0.5-21.4,8.8-24.2,19.2
			c-2.2,8.2,1.1,16.5,8.4,20.7c0.5,0.3,1.3,0.4,1.4,1.4c-3.2,3.3-6.1,6.8-8.2,11.1c-5.5,11.4-5.3,22.9-0.8,34.5
			c1.7,4.3,4.9,7.9,6.3,12.4c4.1,13-7.4,18.1-7.4,18.1c-2.7,1.7-5.4,3.4-7.3,6c-2.1,2.9-3,6-1.2,9.7c1-1.4,0.8-3,1.4-4.3
			c1.7-3.4,4.6-5.6,8-6.9c3.3-1.3,6.5-2.6,9.3-4.8c0.5-0.4,1-1.1,2.1-1.1c-2,3.8-4.8,6.1-8,8.1c-1.9,1.2-3.9,2.3-5.2,4.2
			c-2.4,3.4-1.1,6.8,2.9,7.7c0.7,0.2,1.6-0.3,2,0.8c-0.7,1.1-1.8,1.7-2.8,2.4c-24,9.1-43.1,23-45.6,29c5.6-3.8,29-18.2,53.1-16.1
			c0,0,0.1,0,0.1,0c24.5,3.7,33.8,22.2,33.8,22.2c-0.7-0.4-8.5-9-19.9-12.2c-40.6-12.1-60.3,14.2-61.4,16.1c1.6-0.8,2.6-1.3,3.6-1.8
			c4.6-2.1,9.3-3.5,14.3-3.9c12.4-1,23.7,2.5,34.2,8.9c8,4.9,18.2,14.4,23.7,21c-7.7-6.2-13.5-10.2-19.4-13.6
			c-6.5-3.8-13.4-6.5-20.9-7.8c-11.4-2-48.1,0.2-52.8,42.1c-0.7,3.5-2.4,6.8-5.2,9.1c-3,2.6-17.7,7.6-21.7,7.7
			c-1.2,0-1.9,0.5-1.9,1.8c0,1.3,0.6,1.9,1.8,1.8c0.9,0,1.8,0,2.7,0c15,0,45.5,0.1,60.5-0.1c35.1-0.7,37.6-3,38.6-3.7
			c-5.4-0.4-10.8-0.9-16.1-2.1C364.8,459.7,360.1,458.4,356,455.6z M455,363.2c3.4,5.5,4.3,11.5,2.6,17.9c-0.1,0.5-0.3,1.1-0.8,1.4
			c-0.3,0.2-0.4,0.1-0.4-0.3c0.2-5.7-1.7-10.8-4.5-15.7c-2.5-4.3-3.4-8.8-1.3-13.5C451.3,356.8,453.1,360,455,363.2z M440,350.2
			c1.4-6.1,4.4-11.1,9.7-14.5c2.2-1.5,4.7-2.1,7.4-2.1c1.8,0,2.6,1.2,2,2.9c-0.4,1.1-1.4,1.8-2.5,2.2c-10.4,3.9-14.8,11.8-15.6,22.4
			C439.3,357.5,439.1,353.9,440,350.2z M374.4,256.4c-8.2-5.2-6.7-17.9,2.7-24.3C371.4,244.4,371.3,245.4,374.4,256.4z M420.4,339.3
			c2.7-5.6,2.9-6.7,2.8-12.7c1-0.3,1.1,0.6,1.3,1.1c1.6,3.8,1.3,7.5-0.5,11.1c-0.4,0.8-0.9,1.6-1.4,2.3c-2.9,4.1-4.7,8.5-4.5,13.6
			C417.1,349.3,418,344.2,420.4,339.3z M415.3,310.3c-0.4,5.3,1.4,10.2,2.1,15.3c0.4,2.4,0.1,4.2-1.1,6.9c0.3-5-1.9-9.4-3.2-13.9
			C412.2,315.5,412.7,312.6,415.3,310.3z M385.6,305.4c1.1-5.5,6.3-8.1,11.4-5.8c3.7,1.6,7.7,7.1,4.7,11.3c-1-0.7-0.9-2-1.4-3
			c-1-2-2.4-3.6-4.5-4.4c-3.1-1.3-5.7,0.2-6.2,3.5c-0.1,1-0.2,2,0.2,3c1.1,0.2,1.3-1.1,2.2-1.3c0.8-0.2,1.5-0.3,2.3,0.2
			c0.2,0.9-0.6,1.4-0.8,2.1c-1.8,4.6,1.1,9.7,6,10.3c1.2,0.1,1.6,0.6,1.7,1.6c0.1,0.9,0.2,1.8,0.1,2.7c-0.3,2.3-1.8,3.3-4.1,2.9
			c-1.5-0.3-2.7-1.2-3.7-2.3c-3.6-4.3-6.3-9.1-7.8-14.5C385.3,309.7,385.2,307.5,385.6,305.4z M381.6,363.7c4.3-5.1,7.6-10.4,9.7-17
			c1,1.6,0.8,3,1,4.2c0.8,7.1,3.4,13.3,8.9,18.1c2,1.7,3.8,3.6,5.5,5.5c1.4,1.5,2.4,3.2,3,5.7C399.8,374.9,391.4,368.4,381.6,363.7z
			"/>
		<path d="M337.3,335.4c0,1.6,1.3,2.8,2.8,2.8c1.6,0,2.8-1.3,2.8-2.8c0-1.6-1.3-2.8-2.8-2.8C338.6,332.6,337.3,333.9,337.3,335.4z"
			/>
		<path d="M546.1,323.2c-1-18.1-4.9-35.6-12.6-52.1c-13.3-28.8-34.4-56.6-63.5-69.3c-15.1-6.6-31.1-10.1-47.6-11.2
			c-10.7-0.7-21.4-1-32.2-1.1c-15-0.1-33.4-0.1-51.8-0.1v112.3l3.7,4.6v22.6c2.8,0.9,4.8,3.4,4.8,6.5c0,3.7-3,6.8-6.8,6.8
			c-3.7,0-6.8-3.1-6.8-6.8c0-3.1,2-5.6,4.8-6.5v-21.2l-3.7-4.6V189.5c-2.4,0-4.8,0-7.1,0v93.4l-3.8,4.6v25.9
			c2.8,0.9,4.8,3.4,4.8,6.5c0,3.7-3.1,6.8-6.8,6.8s-6.8-3.1-6.8-6.8c0-3.1,2-5.6,4.8-6.5V286l3.8-4.6v-91.9c-12.3,0-24.1,0-34.3,0
			c0,0-0.1,0-0.1,0v10.3c3.6,0.5,7,1.4,10.3,2.9c6.5,2.9,9.9,8,10.7,14.9c0.4,3.3,0.5,6.5,0.5,9.8c0,16.7,0,121.7,0,161.3
			c0,0,14.8-19.9,39-27.6c0-14.8,0-134,0-156.2c0-3.3,0.1-3.5,3-3.5c10.4,0,51.8,2.4,57.9,3.8c12.1,2.7,23.5,7.3,33.8,14.4
			c20.9,14.3,35,33.8,43.9,57.2c6.2,16.4,9.1,33.5,9.7,51.1c0.6,17.9-1.3,35.4-6.5,52.6c-4.4,14.4-11,27.7-20.8,39.3
			c-3.2,3.8-7.7,7.7-12.9,11.5c-2,1.5-4.1,3-6.3,4.4c-1.3,0.9-2.6,1.7-3.9,2.6c-0.9,0.6-1.8,1.1-2.7,1.7c-0.2,0.1-0.5,0.3-0.7,0.4
			c-0.7,0.4-1.4,0.8-2,1.2c-0.3,0.2-0.6,0.3-0.9,0.5c-0.6,0.4-1.3,0.8-1.9,1.1c-0.3,0.2-0.6,0.3-0.9,0.5c-0.7,0.4-1.3,0.8-2,1.1
			c-0.3,0.1-0.5,0.3-0.8,0.4c-0.7,0.4-1.5,0.8-2.2,1.2c-0.2,0.1-0.3,0.2-0.5,0.3c-2.8,1.5-5.4,2.9-7.9,4.2c-8.6,4.5-15,7.4-15.6,7.5
			c31.4,4.1,59.6-5.7,72.5-13.3c25.6-15,44-36.2,54.9-63.8C544.2,362.7,547.2,343.3,546.1,323.2z"/>
		<path d="M318.7,319.8c0,1.6,1.3,2.8,2.8,2.8c1.6,0,2.8-1.3,2.8-2.8c0-1.6-1.3-2.8-2.8-2.8C320,317,318.7,318.3,318.7,319.8z"/>
	</g>
</g>
</svg>
