<?xml version="1.0" encoding="utf-8"?>
<!-- Generator: Adobe Illustrator 28.0.0, SVG Export Plug-In . SVG Version: 6.00 Build 0)  -->
<svg version="1.1" id="Layer_1" xmlns="http://www.w3.org/2000/svg" xmlns:xlink="http://www.w3.org/1999/xlink" x="0px" y="0px"
	 viewBox="0 0 800 800" style="enable-background:new 0 0 800 800;" xml:space="preserve">
<style type="text/css">
	.st0{stroke:#000000;stroke-width:0.25;}
</style>
<g>
	<g>
		<g>
			<path class="st0" d="M106.4,578.5c0-15.6,0-18.5-0.2-21.8c-0.2-3.5-0.9-5.1-3.7-5.9c-0.7-0.2-2.1-0.3-3.3-0.3
				c-0.9,0-1.4-0.2-1.4-0.9s0.6-0.9,1.9-0.9c4.5,0,9.9,0.3,12.3,0.3c2.6,0,8-0.3,13.1-0.3c10.6,0,24.9,0,34.1,11.7
				c4.3,5.3,8.3,13.9,8.3,26.1c0,12.9-4.5,22.8-9.3,28.6c-3.9,4.8-12.8,12.1-28.5,12.1c-3.1,0-6.6-0.3-9.8-0.6
				c-3.2-0.3-6.2-0.6-8.3-0.6c-0.9,0-2.8,0-4.9,0.1c-2,0-4.2,0.2-5.9,0.2c-1.1,0-1.7-0.3-1.7-1c0-0.5,0.3-0.8,1.4-0.8
				c1.3,0,2.3-0.2,3.1-0.4c1.7-0.4,2.1-2.7,2.5-5.6c0.4-4.3,0.4-12.4,0.4-21.9V578.5z M117,589.8c0,10.9,0.1,18.8,0.2,20.7
				c0.1,2.6,0.3,6.7,0.9,7.8c1.1,1.9,4.4,4.1,11.2,4.1c8.7,0,14.5-2.1,19.6-7.4c5.4-5.6,7.1-15,7.1-25.6c0-13-4.5-21.5-8.2-25.7
				c-7.8-9-17.5-10.3-24.2-10.3c-1.7,0-4.9,0.3-5.5,0.7c-0.8,0.4-1,0.9-1,2.1c-0.1,3.5-0.1,12.4-0.1,20.5V589.8z"/>
			<path class="st0" d="M181,585.6c0-13.2,0-15.7-0.1-18.5c-0.2-3-0.9-3.9-3.2-4.7c-0.6-0.2-1.9-0.3-3-0.3c-0.8,0-1.3-0.3-1.3-0.9
				c0-0.6,0.6-0.8,1.7-0.8c3.9,0,8.7,0.2,10.2,0.2c2.6,0,9.4-0.2,11.7-0.2c4.8,0,10.2,0.5,14.2,3.7c2.1,1.7,5.3,6.2,5.3,12
				c0,6.5-3.1,12.2-10.4,19.3c6.6,9.9,11.9,17.8,16.4,23.2c4.2,5,6.8,5.4,8,5.7c0.8,0.2,1.2,0.2,1.8,0.2s0.9,0.5,0.9,0.9
				c0,0.7-0.5,0.9-1.4,0.9h-7.2c-4.2,0-6.2-0.5-8.2-1.7c-3.2-2-6-6.1-10.2-12.8c-3-4.7-6.1-10.6-7.1-11.9c-0.4-0.5-0.9-0.6-1.4-0.6
				l-6.7-0.2c-0.3,0-0.6,0.2-0.6,0.7v1.2c0,8.1,0.1,14.9,0.4,18.6c0.3,2.6,0.6,4.2,2.9,4.6c1.1,0.2,2.7,0.3,3.7,0.3
				c0.6,0,0.9,0.5,0.9,0.9c0,0.6-0.6,0.9-1.5,0.9c-4.3,0-10.6-0.3-11.7-0.3c-1.4,0-6.2,0.3-9.2,0.3c-0.9,0-1.4-0.3-1.4-0.9
				c0-0.4,0.3-0.9,1.2-0.9c1.1,0,2-0.1,2.6-0.3c1.5-0.4,2-2.1,2.2-4.6c0.3-3.7,0.3-10.6,0.3-18.6V585.6z M190.5,592.3
				c0,0.9,0.2,1.2,0.7,1.5c1.6,0.6,3.8,0.8,5.7,0.8c3,0,4-0.3,5.3-1.4c2.3-1.9,4.9-5.7,4.9-12.9c0-12.3-7-15.5-11.4-15.5
				c-1.9,0-3.7,0.1-4.4,0.3c-0.5,0.2-0.7,0.5-0.7,1.2V592.3z"/>
			<path class="st0" d="M230.8,593.3c0-14.9,8.7-34.2,31.4-34.2c18.9,0,30.6,12.6,30.6,32.6c0,20-12.1,35.7-31.4,35.7
				C239.6,627.4,230.8,608.8,230.8,593.3z M281.7,594.9c0-19.3-9.6-31.2-21.7-31.2c-8.3,0-18.1,5.3-18.1,26.9
				c0,18,8.5,32.1,22.6,32.1C269.8,622.7,281.7,619.7,281.7,594.9z"/>
			<path class="st0" d="M311.5,614.4c0.2,6.8,1.1,8.8,2.6,9.4c1.3,0.5,2.7,0.6,3.9,0.6c0.9,0,1.3,0.4,1.3,0.9c0,0.7-0.7,0.9-1.7,0.9
				c-4.9,0-8.3-0.3-9.7-0.3c-0.7,0-4.3,0.3-8.1,0.3c-1,0-1.7-0.1-1.7-0.9c0-0.5,0.5-0.9,1.2-0.9c1,0,2.4-0.1,3.4-0.4
				c2-0.6,2.2-3,2.3-10.6l0.7-51.7c0-1.7,0.5-3,1.3-3c0.9,0,2,1.3,3.2,2.9c0.9,1.1,12.2,15,23.1,27.8c5.1,6.1,15.1,18.4,16.2,19.6
				h0.3l-0.8-38.8c-0.1-5.3-0.8-6.9-2.6-7.7c-1.1-0.5-2.9-0.5-3.9-0.5c-0.9,0-1.2-0.4-1.2-0.9c0-0.7,0.8-0.8,1.9-0.8
				c3.9,0,7.9,0.2,9.5,0.2c0.9,0,3.7-0.2,7.3-0.2c1,0,1.7,0.1,1.7,0.8c0,0.5-0.4,0.9-1.3,0.9c-0.8,0-1.4,0-2.3,0.3
				c-2,0.7-2.6,2.3-2.7,7.2l-0.9,55c0,1.9-0.6,2.8-1.2,2.8c-1.3,0-2.3-0.9-3.1-1.8c-4.7-5.2-14-16-21.9-25.1
				c-8.2-9.4-16.1-20-17.5-21.6h-0.3L311.5,614.4z"/>
			<path class="st0" d="M381.6,604.3c-0.4,0-0.5,0.1-0.7,0.6l-4,11.7c-0.8,2.2-1.1,4.3-1.1,5.3c0,1.5,0.7,2.5,3,2.5h1.1
				c0.9,0,1.1,0.4,1.1,0.9c0,0.7-0.4,0.9-1.2,0.9c-2.5,0-6-0.3-8.3-0.3c-0.8,0-4.8,0.3-8.7,0.3c-0.9,0-1.4-0.2-1.4-0.9
				c0-0.5,0.3-0.9,0.9-0.9c0.7,0,1.5-0.1,2.2-0.1c3.4-0.6,4.7-3.3,6.2-7.7l19.6-54.9c0.9-2.5,1.4-3.5,2.2-3.5c1.1,0,1.4,0.8,2.2,2.8
				c1.8,4.8,14.3,40.5,19.1,53.8c2.9,7.9,5,9,6.4,9.3c1.1,0.2,2,0.3,2.8,0.3c0.7,0,1,0.3,1,0.9c0,0.7-0.4,0.9-3.2,0.9
				c-2.6,0-8.1,0-14.4-0.2c-1.4-0.1-2.2-0.1-2.2-0.7c0-0.5,0.2-0.8,0.9-0.9c0.5-0.1,1-0.9,0.7-1.9L400,605c-0.2-0.5-0.4-0.6-0.8-0.6
				H381.6z M397.6,599.5c0.3,0,0.4-0.2,0.3-0.5l-7.1-22.2c-0.1-0.3-0.2-0.8-0.3-0.8c-0.3,0-0.3,0.5-0.4,0.8l-7.2,22.1
				c-0.2,0.4,0,0.6,0.3,0.6H397.6z"/>
			<path class="st0" d="M442.2,601c0,11.2,0,16.7,1.6,18.4c1.3,1.3,4.2,1.8,10,1.8c4,0,6.9-0.1,8.8-2.5c0.9-1.1,1.7-3.6,1.9-5.2
				c0.1-0.8,0.3-1.3,0.9-1.3c0.5,0,0.7,0.9,0.7,1.9c0,1-0.5,7.5-1.1,10.1c-0.5,1.9-0.9,2.4-4.8,2.4c-5.4,0-9.7-0.1-13.4-0.3
				c-3.7-0.1-6.9-0.2-10-0.2c-0.9,0-2.5,0.1-4.3,0.1c-1.8,0.1-3.7,0.2-5.2,0.2c-0.9,0-1.4-0.3-1.4-0.9c0-0.4,0.3-0.9,1.2-0.9
				c1.1,0,2-0.1,2.6-0.3c1.5-0.4,2-2.1,2.2-4.6c0.3-3.7,0.3-10.6,0.3-18.6v-15.4c0-13.2,0-15.7-0.1-18.5c-0.2-3-0.9-3.9-3.2-4.7
				c-0.6-0.2-1.5-0.3-2.5-0.3c-0.9,0-1.3-0.3-1.3-0.9c0-0.6,0.5-0.8,1.6-0.8c3.5,0,8.3,0.2,10.3,0.2c1.8,0,7.9-0.2,10.8-0.2
				c1.1,0,1.6,0.2,1.6,0.8c0,0.6-0.4,0.9-1.4,0.9c-0.9,0-2,0.1-2.9,0.3c-2,0.4-2.6,1.6-2.8,4.7c-0.2,2.8-0.2,5.2-0.2,18.5V601z"/>
			<path class="st0" d="M483.9,603.6c0-4.7-0.7-6.6-1.7-9.1c-0.5-1.3-10.7-20.5-13.4-25.1c-1.9-3.2-3.4-5.2-4.9-6.2
				c-0.9-0.6-2.2-1.1-3.2-1.1c-0.6,0-1.1-0.3-1.1-0.9c0-0.6,0.5-0.8,1.4-0.8c1.3,0,6.9,0.2,9.4,0.2c1.6,0,5.1-0.2,8.5-0.2
				c0.7,0,1.1,0.2,1.1,0.8c0,0.7-0.5,0.7-1.7,1.1c-0.6,0.2-1,0.6-1,1.3c0,0.7,0.3,1.7,0.9,3c1.4,2.7,11.2,23.1,12.4,25.6
				c0.9-2.1,10-20.7,11.2-23.4c0.8-1.9,1.1-3.5,1.1-4.6c0-0.8-0.3-1.6-1.6-1.9c-0.7-0.2-1.4-0.3-1.4-1c0-0.6,0.4-0.8,1.3-0.8
				c2.5,0,5.1,0.2,7.3,0.2c1.6,0,6.6-0.2,8-0.2c0.9,0,1.4,0.2,1.4,0.7c0,0.6-0.6,1-1.4,1c-0.8,0-2.1,0.4-3.2,1
				c-1.6,0.9-2.3,1.7-3.9,4.1c-2.5,3.5-13.2,24.2-14.6,27.9c-1.1,3.2-0.9,5.9-0.9,8.7v7c0,1.4,0,5,0.2,8.7c0.2,2.6,0.9,4.2,3.1,4.6
				c1.1,0.2,2.7,0.3,3.7,0.3c0.9,0,1.3,0.5,1.3,0.9c0,0.6-0.6,0.9-1.6,0.9c-4.7,0-9.7-0.3-11.7-0.3c-1.9,0-6.9,0.3-9.7,0.3
				c-1,0-1.6-0.2-1.6-0.9c0-0.4,0.3-0.9,1.2-0.9c1,0,2-0.1,2.6-0.3c1.5-0.4,2.1-2.1,2.3-4.6c0.3-3.7,0.3-7.3,0.3-8.7V603.6z"/>
			<path class="st0" d="M536.4,565.6l-11.2,0.3c-4.3,0.1-6.1,0.7-7.2,2.7c-0.8,1.2-1.1,2.4-1.3,3c-0.2,0.7-0.3,1.1-0.9,1.1
				c-0.5,0-0.7-0.5-0.7-1.4c0-1.4,1.4-9.9,1.6-10.6c0.2-1.1,0.4-1.6,0.9-1.6c0.6,0,1.4,0.7,3.2,1c2.2,0.3,5,0.4,7.5,0.4h30.4
				c2.4,0,4-0.2,5.1-0.4c1.2-0.2,1.8-0.4,2-0.4c0.5,0,0.6,0.5,0.6,1.8c0,1.8-0.2,8.3-0.2,10.6c-0.1,0.9-0.3,1.4-0.7,1.4
				c-0.6,0-0.8-0.4-0.9-1.7l-0.1-0.9c-0.2-2.3-2.1-4.9-8.9-5l-9.4-0.2V601c0,8,0.1,14.9,0.4,18.7c0.3,2.5,0.7,4.1,2.9,4.5
				c1,0.2,2.7,0.3,3.8,0.3c0.9,0,1.2,0.5,1.2,0.9c0,0.6-0.6,0.9-1.4,0.9c-4.9,0-10-0.3-12.1-0.3c-1.7,0-6.8,0.3-9.8,0.3
				c-0.9,0-1.4-0.3-1.4-0.9c0-0.4,0.3-0.9,1.2-0.9c1.1,0,2-0.1,2.6-0.3c1.5-0.4,2-2.1,2.2-4.6c0.3-3.7,0.3-10.6,0.3-18.6V565.6z"/>
			<path class="st0" d="M580.3,585.6c0-13.2,0-15.7-0.1-18.5c-0.2-3-0.9-4-2.6-4.6c-0.9-0.3-1.8-0.4-2.7-0.4c-0.8,0-1.2-0.2-1.2-1
				c0-0.5,0.6-0.7,1.8-0.7c2.8,0,7.9,0.2,10,0.2c1.9,0,6.7-0.2,9.6-0.2c0.9,0,1.5,0.2,1.5,0.7c0,0.8-0.4,1-1.2,1s-1.4,0.1-2.2,0.3
				c-2,0.4-2.6,1.6-2.8,4.7c-0.2,2.8-0.2,5.2-0.2,18.5V601c0,8.4,0,15.4,0.3,19.1c0.3,2.4,0.8,3.7,3,4.1c1,0.2,2.7,0.3,3.8,0.3
				c0.9,0,1.2,0.5,1.2,0.9c0,0.6-0.6,0.9-1.4,0.9c-4.9,0-10-0.3-12.1-0.3c-1.7,0-6.8,0.3-9.8,0.3c-0.9,0-1.4-0.3-1.4-0.9
				c0-0.4,0.3-0.9,1.2-0.9c1.1,0,2-0.1,2.6-0.3c1.5-0.4,2-1.6,2.2-4.2c0.3-3.6,0.3-10.6,0.3-19V585.6z"/>
			<path class="st0" d="M615.3,618c-7.4-7.5-9.4-17.3-9.4-25.8c0-6,1.6-16.2,8.8-23.9c5.4-5.7,12.6-9.2,23.8-9.2
				c4.7,0,7.5,0.4,10.9,0.9c2.8,0.5,5.3,1.1,7.5,1.4c0.9,0.1,1.1,0.5,1.1,1c0,0.7-0.2,1.7-0.3,4.8c-0.2,2.9-0.2,7.7-0.3,9.4
				c-0.1,1.2-0.3,2.2-1,2.2c-0.6,0-0.8-0.7-0.8-1.8c-0.1-2.8-1-5.9-2.9-8.1c-2.6-3-7.6-5.1-14.5-5.1c-6.6,0-10.7,1.4-14.1,4.9
				c-5.5,5.7-6.9,14.2-6.9,22.7c0,20.7,13.3,30.6,23.3,30.6c6.6,0,10.3-0.6,13.3-4.6c1.3-1.7,2.3-4.2,2.6-5.9
				c0.2-1.3,0.3-1.7,0.9-1.7c0.5,0,0.9,0.8,0.9,1.5c0,1-0.9,8.6-1.6,11.6c-0.3,1.5-0.7,1.9-2,2.6c-3,1.4-8.7,1.9-13.5,1.9
				C630.8,627.4,622.1,624.9,615.3,618z"/>
			<path class="st0" d="M670,625.2c-1.2-0.6-1.4-1-1.4-3c0-4.7,0.3-10.2,0.4-11.6c0-1.3,0.3-2.3,0.9-2.3c0.7,0,0.8,0.8,0.8,1.4
				c0,1.1,0.3,3,0.7,4.5c1.6,6.5,7.2,8.6,11.9,8.6c6.5,0,10.4-4.9,10.4-11.1c0-3.8-0.8-7.6-7.4-12.3l-4.3-3.1
				c-8.9-6.3-11.7-12.1-11.7-19.8c0-10.7,8.5-17.6,18.9-17.6c4.9,0,8.7,0.8,10.6,1.4c0.7,0.2,1,0.5,1,1.1c0,1.1-0.3,3.6-0.3,10.5
				c0,1.8-0.3,2.8-0.9,2.8c-0.5,0-0.8-0.5-0.8-1.5c0-0.8-0.3-3.5-2-5.7c-1.1-1.6-3.5-4.1-8.3-4.1c-5.4,0-10.2,3.4-10.2,9.3
				c0,3.9,1.2,7,7.9,11.5l3.1,2.1c9.9,6.6,12.9,13.2,12.9,21.1c0,6.5-2,11.7-7.5,16.3c-3.6,3.1-8.5,3.6-12.5,3.6
				C677.9,627.4,673.3,626.9,670,625.2z"/>
		</g>
	</g>
	<g>
		<path d="M103.5,648.7h3.2v22.2h-3.2V648.7z"/>
		<path d="M148.4,648.7v22.2h-2.6l-13.3-16.6v16.6h-3.2v-22.2h2.6l13.3,16.6v-16.6H148.4z"/>
		<path d="M175.3,651.4h-7.6v-2.8h18.4v2.8h-7.6v19.5h-3.1V651.4z"/>
		<path d="M221.6,668.1v2.8h-16.1v-22.2h15.7v2.8h-12.5v6.8h11.1v2.7h-11.1v7.2H221.6z"/>
		<path d="M242.6,648.7h3.2v19.5h12v2.8h-15.2V648.7z"/>
		<path d="M277.3,648.7h3.2v19.5h12v2.8h-15.2V648.7z"/>
		<path d="M312.1,648.7h3.2v22.2h-3.2V648.7z"/>
		<path d="M353.2,659.7h3v8.7c-1.1,0.9-2.4,1.6-3.8,2.1c-1.5,0.5-3,0.7-4.6,0.7c-2.2,0-4.3-0.5-6.1-1.5s-3.2-2.3-4.2-4.1
			c-1-1.7-1.5-3.7-1.5-5.8c0-2.2,0.5-4.1,1.5-5.8c1-1.7,2.4-3.1,4.3-4.1c1.8-1,3.8-1.5,6.1-1.5c1.8,0,3.4,0.3,4.8,0.9
			c1.4,0.6,2.7,1.4,3.7,2.6l-2,2c-1.8-1.7-3.9-2.6-6.4-2.6c-1.7,0-3.2,0.4-4.6,1.1c-1.3,0.7-2.4,1.7-3.2,3c-0.8,1.3-1.1,2.8-1.1,4.4
			c0,1.6,0.4,3.1,1.1,4.4c0.8,1.3,1.8,2.3,3.2,3.1c1.3,0.7,2.9,1.1,4.5,1.1c2,0,3.7-0.5,5.2-1.4V659.7z"/>
		<path d="M394.4,668.1v2.8h-16.1v-22.2h15.7v2.8h-12.5v6.8h11.1v2.7h-11.1v7.2H394.4z"/>
		<path d="M434.5,648.7v22.2h-2.6l-13.3-16.6v16.6h-3.2v-22.2h2.6l13.3,16.6v-16.6H434.5z"/>
		<path d="M461,669.7c-1.8-1-3.2-2.3-4.2-4.1c-1-1.7-1.5-3.7-1.5-5.8c0-2.2,0.5-4.1,1.5-5.8c1-1.7,2.4-3.1,4.2-4.1
			c1.8-1,3.8-1.5,6-1.5c1.7,0,3.3,0.3,4.8,0.9c1.4,0.6,2.7,1.4,3.7,2.6l-2.1,2c-1.7-1.8-3.8-2.6-6.3-2.6c-1.7,0-3.1,0.4-4.5,1.1
			c-1.3,0.7-2.4,1.8-3.1,3.1c-0.8,1.3-1.1,2.8-1.1,4.4c0,1.6,0.4,3.1,1.1,4.4c0.8,1.3,1.8,2.3,3.1,3.1c1.3,0.7,2.8,1.1,4.5,1.1
			c2.5,0,4.6-0.9,6.3-2.7l2.1,2c-1,1.1-2.3,2-3.7,2.6c-1.5,0.6-3,0.9-4.8,0.9C464.8,671.1,462.8,670.7,461,669.7z"/>
		<path d="M512,668.1v2.8h-16.1v-22.2h15.7v2.8h-12.5v6.8h11.1v2.7h-11.1v7.2H512z"/>
		<path d="M572.9,659.7h3v8.7c-1.1,0.9-2.4,1.6-3.8,2.1c-1.5,0.5-3,0.7-4.6,0.7c-2.2,0-4.3-0.5-6.1-1.5s-3.2-2.3-4.2-4.1
			c-1-1.7-1.5-3.7-1.5-5.8c0-2.2,0.5-4.1,1.5-5.8c1-1.7,2.4-3.1,4.3-4.1c1.8-1,3.8-1.5,6.1-1.5c1.8,0,3.4,0.3,4.8,0.9
			c1.4,0.6,2.7,1.4,3.7,2.6l-2,2c-1.8-1.7-3.9-2.6-6.4-2.6c-1.7,0-3.2,0.4-4.6,1.1c-1.3,0.7-2.4,1.7-3.2,3c-0.8,1.3-1.1,2.8-1.1,4.4
			c0,1.6,0.4,3.1,1.1,4.4c0.8,1.3,1.8,2.3,3.2,3.1c1.3,0.7,2.9,1.1,4.5,1.1c2,0,3.7-0.5,5.2-1.4V659.7z"/>
		<path d="M600.2,668.6c-1.7-1.7-2.5-4.1-2.5-7.3v-12.6h3.2v12.5c0,4.8,2.1,7.1,6.3,7.1c2,0,3.6-0.6,4.7-1.8c1.1-1.2,1.6-3,1.6-5.4
			v-12.5h3.1v12.6c0,3.2-0.8,5.6-2.5,7.3c-1.7,1.7-4,2.5-6.9,2.5C604.1,671.1,601.8,670.3,600.2,668.6z"/>
		<path d="M653.8,670.9l-4.8-6.8c-0.6,0-1.1,0.1-1.4,0.1h-5.5v6.8h-3.2v-22.2h8.7c2.9,0,5.1,0.7,6.8,2.1c1.7,1.4,2.5,3.3,2.5,5.7
			c0,1.7-0.4,3.2-1.3,4.4c-0.8,1.2-2.1,2.1-3.6,2.6l5.3,7.5H653.8z M652.1,660.1c1.1-0.9,1.6-2.1,1.6-3.7s-0.5-2.8-1.6-3.7
			c-1.1-0.9-2.6-1.3-4.6-1.3h-5.4v10h5.4C649.5,661.4,651,661,652.1,660.1z"/>
		<path d="M680.2,668.6c-1.7-1.7-2.5-4.1-2.5-7.3v-12.6h3.2v12.5c0,4.8,2.1,7.1,6.3,7.1c2,0,3.6-0.6,4.7-1.8c1.1-1.2,1.6-3,1.6-5.4
			v-12.5h3.1v12.6c0,3.2-0.8,5.6-2.5,7.3c-1.7,1.7-4,2.5-6.9,2.5C684.1,671.1,681.8,670.3,680.2,668.6z"/>
	</g>
	<g>
		<g>
			<path d="M510.1,254.3c-1.2-0.9-2.5-1.1-3.9-0.7c-2.7,0.6-5,2.1-7.1,3.8c-0.8,0.6-1.6,1.2-2.7,1.7c0.9-3.2,0.6-6.3,0.1-9.4
				c-0.1-0.6-0.1-1.3-0.8-1.4c-0.8-0.2-1.3,0.3-1.7,1c-0.5,0.9-0.5,1.9-0.5,2.9c0.3,3.3-0.9,5.8-3.8,7.9c0.7-3.2-0.1-6-1.2-8.7
				c-0.2-0.5-0.4-1.2-1.2-1.1c-0.8,0.1-1.2,0.6-1.3,1.4c-0.2,1,0,2,0.2,2.9c0.6,3-0.7,5.7-3.3,6.9c-1.1,0.5-2.2,0.3-3.3,0.2
				c-1.9-0.3-3.7-0.6-5.6,0.1c1.5-1.6,3.2-2.6,5.5-2.2c1.2,0.2,2.4,0.7,3.6-0.1c0.6-0.4,1.1-0.8,0.8-1.7c-0.4-0.9-4.6-2.3-6-2.1
				c-6.1-0.4-10.8,4.1-12,6c-1.5,2.6-3.6,8-4,10.9c-0.8,7.3-0.8,14.7,1.1,21.9c0.4,1.6,1,3.2,1.9,4.6c1.6,2.3,3.4,2.5,5.4,0.7
				c1.4-1.2,2.3-2.8,3-4.5c2.2-5.4,2.6-11.1,2.4-16.9c-0.1-1.9-0.2-3.7-0.4-5.6c-0.2-1.2,0.3-1.7,1.4-2c3.9-1,7.7-2,11.6-2.9
				c1.6-0.4,3.1-1,4.7-1.2c0.5-0.1,0.9-0.3,1.3-0.6c3.6-2.5,7.3-5,10.9-7.5c1.4-1,3-1.5,4.5-2.2C510.9,255.7,511,255,510.1,254.3z"
				/>
			<path d="M310.8,187c0.4,0.3,0.6,0.6,0.8,1.2c0.6,2.7,1.3,5.4,1.9,8c0.3,1.1,1.4,1.4,2.2,2c0.6,0.4,0.9,0.9,1.1,1.7
				c0.5,2.6,1.3,5.2,4.1,6.4c2.7,1.1,5.6,0.1,7-2.5c0.9-1.7,1.1-3.6,0.6-5.5c-0.3-1-0.1-1.7,0.5-2.4c1.1-1.2,1.4-2.4,1.1-4
				c-0.4-2.2-0.4-4.4-0.7-6.6c-0.1-0.9,0.4-1.4,0.8-2c2.4-4.6,2.2-9.3-0.4-13.7c-2.6-4.5-6.6-6.8-11.9-6.7
				c-6.9,0.1-12.2,6-12.2,14.5C306.1,180.6,307.4,184.3,310.8,187z M320.9,203.4c-0.3,0.1-0.4-0.2-0.5-0.4c-0.3-0.7-0.6-1.4-0.9-2.1
				c0.9,0.4,1.7,0.9,1.8,1.8C321.3,203,321.2,203.3,320.9,203.4z M318.6,195.6c-1.1-0.5-1.8-1.2-2-2.5c-0.2-1.4-0.5-2.9-1.4-4.3
				c1.5-0.1,2,0.7,2.1,1.9c0.2,2.2,1.1,3.9,3.1,5c0.4,0.2,0.8,0.5,0.9,1.2C320.3,196.5,319.5,196,318.6,195.6z M321.2,192.2
				c-0.8,0-1.4-0.3-1.7-1.1c0.2-0.9,0.5-1.7,1.5-1.8c0.9,0,1.8,0.4,1.8,1.3C322.8,191.5,322.2,192.1,321.2,192.2z M318.3,165.2
				c5.4,0,10,4.7,10,10.2c0,5.1-4.6,9.6-10,9.6c-5.3,0-9.8-4.6-9.8-10C308.5,169.7,313,165.2,318.3,165.2z"/>
			<path d="M477.8,236.5c3.6,0.8,7.3,1.1,11.5,1.2c1.8-0.1,4.1-0.3,6.4-0.5c1-0.1,1.5-0.5,1.8-1.4c1.7-4.4,0.6-9.9-2.8-13.3
				c-3.7-3.7-9-4.8-13.8-2.8c-4.4,1.8-7.5,6.3-7.6,11.1C473.3,235.1,473.6,235.6,477.8,236.5z M488.4,221.1c1.4,0.2,2.9,0.7,3.9,2
				c0.6,0.7,0.7,1.6,0,2.3c-0.7,0.7-1.4,0.4-2.1-0.2c-0.9-0.7-1.8-1.4-2.6-2.2c-0.4-0.3-1.1-0.6-0.9-1.2
				C486.8,221.1,487.6,221.2,488.4,221.1z"/>
			<path d="M463.7,237.5c3.4,2.2,7.3,3.1,11.3,3.8c1.4,0.2,2.7,0.7,3.9,1.5c4.5,3,9.9,2.9,14.3-0.2c0.7-0.5,1.3-0.6,2.1-0.6
				c3.4-0.2,6.7-0.7,9.8-1.9c1.3-0.5,3-1,3-2.8c0-1.8-1.7-2.3-3-2.9c-1.2-0.5-2.4-0.8-3.7-1.2c-0.3-0.1-0.9-0.4-1,0.2
				c-0.1,0.5-0.5,1.2,0.3,1.6c0.8,0.4,2,0.7,1.8,1.9c-0.2,1.3-1.5,1.5-2.5,1.8c-3.8,1.1-7.8,1.3-12.2,1.3c-5,0-10.4-0.7-15.7-2.2
				c-1.2-0.3-2.3-0.8-3.4-1.5c-1.3-0.9-1.3-1.8,0.1-2.6c0.4-0.2,0.9-0.5,1.4-0.5c1.1-0.2,0.8-0.9,0.8-1.6c-0.1-1-0.8-0.5-1.2-0.4
				c-2.1,0.3-4.1,0.8-5.9,1.8C461.6,234.3,461.5,236,463.7,237.5z"/>
			<path d="M343.1,274.3c-0.9,1.1-0.7,2.6-1,3.9c-0.3,1.6-0.7,3-2,4.1c-0.4,0.3-0.6,0.6-0.5,1.1c0.9,5.5,1.7,11.1,2.6,16.6
				c0,0.1,0.1,0.2,0.2,0.4c7.6-8.7,8.4-30.3,1.2-36.8c1.2,2.5,1.2,4.9,1,7.2C344.4,272.1,344,273.3,343.1,274.3z"/>
			<path d="M422.9,167.4c-0.5,0.5-1.2,0.3-1.8,0.1c-1.4-0.6-2.8-1.1-4-1.9c-1.8-1.1-3.5-1-5.2,0.1c-0.8,0.5-1.6,0.9-2.6,2
				c3.3-1.3,5.8-0.8,8.2,1.5c-2.1,0-4.1-0.1-6,1.1c0.3,0.2,0.6,0.4,0.8,0.4c1.3,0,2.7-0.1,3.7,1.1c0.3,0.3,0.9,0.2,1.4,0
				c0.3-0.1,0.6-0.7,1-0.1c0.3,0.4,0.1,0.7-0.1,1.1c-0.1,0.2-0.2,0.3-0.2,0.6c1.4-0.8,3.3-0.7,3.8-2.7c0.2-0.5,0.6-0.4,1-0.4
				c0.7,0,1.4-0.2,1.8,0.6c0.4,1,0.9,2,1.5,3c0.1-1.1,1.3-1.8,0.9-3.1c-0.1-0.2,0.4-0.6,0.7-0.8c0.6-0.4,0.8-1,0.7-1.7
				c-0.1-0.6-0.2-0.9-0.9-0.6c-0.7,0.3-1.5,1.1-2-0.4C424.7,168,423.9,166.5,422.9,167.4z"/>
			<path d="M449.2,497.7c-0.1,0.2-0.1,0.4,0.1,0.5c0.1,0.1,0.2,0.2,0.3,0.3c0.9,0.8,1.6,1.9,2.5,2.4c0.9,0.5,1.9-1,3-1.2
				c1.1-0.2,2.1-0.5,3.2-0.4c-1.4-1.4-2.7-2.8-4.5-3.6C452.5,495.2,449.6,496.4,449.2,497.7z"/>
			<path d="M335.9,495.6c1.1,0.3,2-0.7,2.6-1.6c1.2-1.8,1.2-3.7,0.4-5.6c-0.5-1.2-1.2-1.3-2.1-0.4c-1.4,1.4-1.7,3.1-1.9,5
				C335,494,334.8,495.3,335.9,495.6z"/>
			<path d="M430.9,277.9c-1.5,2.2-2.8,4.3-4.2,6.3c-0.3,0.5,0,0.8,0.2,1.2c1.3,2,2.6,4,4,6.2c1.3-2.3,2.4-4.3,3.6-6.4
				c0.3-0.5,0.1-0.8-0.1-1.2C433.3,282,432.2,280.1,430.9,277.9z"/>
			<path d="M318.4,182.2c3.9,0,7-3.1,6.9-7c0-3.7-3.3-6.9-7.1-6.9c-3.7,0-6.8,3.1-6.8,6.8C311.5,179,314.7,182.2,318.4,182.2z"/>
			<path d="M485.3,213.9h7.5c0.3,0,0.6-0.3,0.6-0.6v-6.4c0-0.3-0.3-0.6-0.6-0.6h-7.5c-0.3,0-0.6,0.3-0.6,0.6v6.4
				C484.7,213.6,484.9,213.9,485.3,213.9z"/>
			<path d="M503.5,225.4h6c0.3,0,0.6-0.3,0.6-0.6v-5.1c0-0.3-0.3-0.6-0.6-0.6h-6c-0.3,0-0.6,0.3-0.6,0.6v5.1
				C502.9,225.1,503.1,225.4,503.5,225.4z"/>
			<path d="M515.3,242.2h-3.4c-0.3,0-0.6,0.3-0.6,0.6v2.8c0,0.3,0.3,0.6,0.6,0.6h3.4c0.3,0,0.6-0.3,0.6-0.6v-2.8
				C515.9,242.5,515.6,242.2,515.3,242.2z"/>
			<path d="M465.5,244.2c-0.3,0-0.6,0.3-0.6,0.6v5.2c0,0.3,0.3,0.6,0.6,0.6h6.2c0.3,0,0.6-0.3,0.6-0.6v-5.2c0-0.3-0.3-0.6-0.6-0.6
				H465.5z"/>
			<path d="M518.9,227.7h-7.5c-0.3,0-0.6,0.3-0.6,0.6v6.4c0,0.3,0.3,0.6,0.6,0.6h7.5c0.3,0,0.6-0.3,0.6-0.6v-6.4
				C519.5,228,519.2,227.7,518.9,227.7z"/>
			<path d="M465.5,220.8h4.9c0.3,0,0.6-0.3,0.6-0.6v-4.1c0-0.3-0.3-0.6-0.6-0.6h-4.9c-0.3,0-0.6,0.3-0.6,0.6v4.1
				C464.9,220.5,465.2,220.8,465.5,220.8z"/>
		</g>
		<path d="M486.6,519.7c-1.3-0.2-2.6-0.3-4-0.4c-0.8-0.1-0.9-0.4-0.9-1.1c0.2-3.2-0.8-6-2.9-8.4c-1.9-2.1-4.4-1.7-6.8-1.5
			c-1.3,0.1-2.5,0.4-3.8,0.6c-0.7,0.1-1.5,0.1-2.2-0.4c0.6-0.7,1.5-0.6,2.3-1.2c-1.7-1-3.4-1.9-4.9-3.1c-0.7-0.5-1.2-1-1.3-2
			c-0.2-1.2-1.2-1.7-2.5-1.7c-2.3,0-4.1,1.1-5.6,2.6c-0.7,0.7-1.2,0.8-1.9,0.1c-2-2-4.1-3.9-6.3-5.8c-0.4-0.4-0.4-0.5-0.1-0.9
			c1.4-1.3,2.9-2.6,4.6-3.4c1.3-0.6,2.4,0.2,3.5,0.7c0.6,0.3,1.1,1.2,1.9,0.9c0.6-0.2,0.8-3,0.3-3.6c-1.1-1.5-2.2-2.9-3.3-4.4
			c-0.7-0.8-1.1-1.6-1.1-2.8c0-1-0.4-2-1.4-2.4c-0.8-0.3-1-0.9-1.1-1.6c-1-6.1-1.6-12.3-1.9-18.5c-0.1-3.4-0.2-6.7-0.5-10.1
			c-0.2-2.1,0.4-4.1,0.5-6.2c0-1.2,0.2-2.4,0-3.5c-0.4-2.4,0.3-4.3,1.6-6.2c0.5,0.1,0.2,0.6,0.3,0.8c0.3,5.8,0.5,11.5,0.8,17.3
			c0,1.1,0.3,1.2,1.3,0.7c3.9-2,7.7-4.2,11-7.2c2.4-2.1,4.1-4.6,3.3-8c-0.1-0.6,0-1.2-0.1-1.8c-0.2-0.9,0.3-1.4,1-1.9
			c1.5-0.9,3-1.8,4.5-2.8c1.3-0.9,2.5-2,3.5-3.2c1.7-1.9,2.1-4,1.3-6.4c-3.5-10.7-7-21.4-10.2-32.1c-5.5-18.2-10.2-36.6-14.8-55
			c-2.3-9.1-4.5-18.2-6.8-27.3c-0.2-0.9-0.4-1.9-1.1-3.1c0.2,4.1,0.9,7.7,1.6,11.4c2.6,14.3,6.3,28.3,9.8,42.4
			c4.8,19.7,10.3,39.1,16.4,58.4c0.4,1.3,0.9,2.6,1.3,3.9c0.1,0.4,0.4,0.9-0.4,0.9c-2.5,0-4.8,0.9-7.2,2c-0.2-2.1-0.5-4-0.7-6
			c-1.3-11.1-4.1-21.8-7.1-32.5c-6.1-21.6-11.4-43.4-14.6-65.7c-1-7.2-1.7-14.5-2.1-21.8c0-0.7-0.4-1.6,0.8-1.9
			c0.4-0.1,0.2-0.7,0.2-1.1c0-0.7-0.4-1.3,0.1-2.1c1.1,1.9,2.3,3.6,3.1,5.5c1.4,3,4,4.7,6.4,6.6c1.7,1.3,3.4,2.3,5.4,3
			c4.6,1.6,9.7,0.3,13.1-3.3c0-0.1-0.1-0.2-0.1-0.2c-3,0.8-5.1-0.5-6.6-3c-2-3.2-2.8-6.8-3.4-10.5c-1.1-7.1-1.3-14.1-0.1-21.2
			c0.8-5,2.2-7.4,6.4-11.4c-3.6-0.2-6.9,0.3-9.6,2.7c-2.6,2.3-4.3,5.2-5.8,8.3c0.1-3.3,1.5-6.1,3.4-9c-2.8,0.6-4.7,2.1-6.7,3.5
			c1.5-3,3.7-5.2,7.1-5.9c0.6-0.1,1.5,0,1.6-0.5c0.1-0.7-0.7-1.1-1.2-1.5c-2.6-1.9-5.3-1.8-8.1-0.4c-0.5,0.2-0.9,0.5-1.7,1
			c0.7-1.5,1.3-2.6,2.4-3.3c1-0.7,1-1.3,0.4-2.3c-1.4-2.5-2.5-5.2-3.7-7.9c-0.4-0.9-0.5-1.8-0.4-2.9c0.3-3.3-0.4-6.4-1.5-9.5
			c-0.5,0.3-0.3,0.7-0.3,1c0.2,3.4-0.5,6.6-1.7,9.7c-0.3,0.8-0.7,1.6-1.8,0.8c-0.3-0.2-0.5-0.3-0.2-0.6c0.1-0.1,0.2-0.2,0.2-0.4
			c0.5-1.8,0.7-3.7,1.2-5.5c0.4-1.3-0.6-3.1,0.3-4.6c0-0.1,0-0.2,0-0.3c0-1.1-1.5-1.8-1.4-2.6c0-0.9,0.7-1.8,0.5-3
			c-0.2-1.1-1.6-1.5-1.7-2.2c-0.1-0.8,0.6-1.7,0.3-2.7c-0.1-0.5-0.3-1.1-0.8-1.4c-1.1-0.5-1.3-1.2-1.2-2.4c0.2-1.3-0.7-2.2-1.8-2.6
			c-0.7-0.3-0.7-0.6-0.5-1.2c1.9-4.9,1.3-9.5-1.9-13.7c-0.6-0.8-0.8-1.6-0.7-2.6c0.2-1.7-0.3-3.1-1.5-4.3c-1-1.1-1.5-2.2-0.6-3.7
			c0.7-1.3,0.6-2.7-0.7-3.7c-0.5-0.4-0.9-0.9-1.1-1.5c-0.3-0.9-0.5-1.5,0.8-1.8c1-0.2,1.6-0.9,1.3-2.3c-1.4,0.8-2.7,0.4-4.1-0.1
			c-0.5-0.2-1.2-0.2-1.8-0.1c-1.7,0.1-1.7,0.1-1.6-1.6c-1.8,1-1.7,2.1,0.5,3.6c-0.6,0.2-1.2,0.5-1.8,0.6c-2.2,0.6-3.6,2-4.2,4.3
			c-0.6,2.4-2,3.4-4.5,3.5c-0.4,0-0.9-0.3-0.7,0.7c0.1,0.6-0.5,1.3-0.9,2.2c-0.4-1,0-1.8-0.2-2.4c-0.4-1.9,0.9-2.9,2.1-4
			c0.5-0.5,0.4-0.8,0.1-1.3c-0.7-1.2-1.2-2.5-1.3-3.9c-0.1-1.4-0.8-2.3-1.9-3c-1.5-0.9-2.9-2.1-3.9-3.6c-0.7-1.1-1-2.2-0.8-3.5
			c0.1-0.4,0.3-0.8,0.2-1.2c-0.2-2.4,1.1-4.1,3-5.3c2.2-1.4,2.3-3.2,1.5-5.3c-0.3-0.9-0.6-1.8-0.9-2.7c-0.2-0.6-0.5-0.7-1.1-0.7
			c-1.3-0.1-2.6-0.2-4,0c-0.6,0.1-1.4,0.2-2.1-0.4c2.2-0.4,4.1-0.7,6.1-1c0.6-0.1,1.3-0.1,1.9-0.4c2.4-1,4.8-1.4,7.6-0.7
			c-1.2-1.3-2.4-2.1-3.8-2.7c-1.3-0.6-2.7-1.2-3.9-1.9c6.6,1.1,12.5,3.5,16.3,9.5c2.2-2.4,2.3-4.7,0.3-7.4
			c-2.8-3.8-6.7-5.9-11.2-7.1c-4.5-1.2-9.1-1.7-13.8-0.7c-0.2,0-0.4,0-0.6-0.1c2.3-1.1,4.7-1.8,7.2-1.9c1,0,1.4-0.4,1.7-1.2
			c0.9-2,0.4-3.9-0.6-5.6c-2.3-4-7.3-6-12.2-5c-5.1,1-8.9,4.9-9.5,9.5c-0.4,3.3,0.5,5.2,3.7,8.4c-5.7,4.3-7.9,10.3-8.2,17.2
			c-0.2,4.2-1.3,8.2-4.1,11.5c-1.3,1.6-3,2.8-5.1,3c-5.5,0.5-9.1,5.9-7.9,11.3c0.5-0.2,0.4-0.7,0.5-1.1c1-3,3.5-4.8,6.5-4.9
			c1.2,0,2.4,0.1,3.5-0.1c1.2-0.2,2.2-0.8,3.6-1.5c-1.7,2.2-3.6,3.1-5.7,3.7c-2.7,0.8-4.2,2.6-4.6,5.4c-0.3,1.8,0.3,3.4,1.1,5
			c0.4,0.8,0.7,0.3,1.1,0c2.4-2.1,5-1.7,7.7-0.8c-2.5,0.6-4.8,1.5-6.9,3c-1.3,0.9-3.1,1-4.7,1.3c-3.2,0.6-5.6,2.3-7.6,5.1
			c2.8-0.3,5.3-0.5,7.9,0c3.9,0.7,7.2,2.6,10.2,5.1c3.2,2.6,5.9,5.8,8.6,9c0.6,0.7,1.2,1.4,0.7,2.5c-0.3,0.5,0.1,0.9,0.4,1.4
			c6.6,12,12.9,24.1,21.1,35.1c4.7,6.4,9.7,12.6,16.1,17.5c-2.2-0.4-4.2-1.3-6.2-2.4c-7.3-4.3-13.3-10.1-18.6-16.5
			c-5.6-6.8-10.4-14.2-15.6-21.4c-4.2-5.8-8.6-11.6-13.9-16.5c-1.9-1.8-4.1-3.2-6.4-4.7c2.2-1,4.2-2,6.3-2.6c1-0.3,0.9-0.8,0.2-1.3
			c-4.4-3.2-10.8-4.5-16.3-1.3c-1.2,0.7-2.3,1.6-3.3,2.4c-2.9,2.3-3.6,5.4-3.2,9.1c1.3-0.9,2.3-2,3.7-2.6c-4.8,5-7.8,10.9-10,17.7
			c9.1-3.8,17.1-8.7,24.6-14.6c-4.3,5.4-9.1,10.3-15.2,13.8c-3.1,1.8-6.3,3.3-9.5,4.7c-1,0.4-1.7,1-2.2,2c-0.4,0.8-0.9,1.7-1.5,2.4
			c-0.9,1.1-0.6,2.4-0.4,3.5c0.2,1,0.9,0.2,1.3,0.1c5.6-1.8,10.3-0.2,14.7,3.9c-0.9,0-1.4-0.5-2-0.7c-4-1.8-8-2.3-12.2-0.5
			c-1.1,0.5-1.4,1.1-1.2,2.3c0.6,3.2,0.6,3.5,3.8,3.1c6.8-0.8,14,4.9,15.1,12.7c-0.8-1.2-1.5-2.4-2.4-3.5c-1-1-2-2-3.1-3
			c-1.1-1-2.3-1.8-4.1-2.2c7.9,8.2,8.3,18,7,28.3c0.4-0.5,0.9-1,1.3-1.6c3.5-4.9,6.5-10,9-15.4c1.2-2.5,1.6-5.3,2.5-7.9
			c1.4-4.2,3-8.3,4.9-12.4c0.2-0.4,0.3-0.9,0.9-1.3c3.4,6.7,7.5,12.9,14.3,17.1c-1,0.1-1.5-0.3-2-0.5c-0.6-0.2-1.2-0.5-1.7-0.8
			c-0.7-0.4-1-0.3-1.4,0.5c-1.2,2.3-0.9,4.2,1,5.9c0.9,0.8,1.1,1.6-0.2,2.3c-0.8,0.4-0.9,1.1-0.8,2c0.5,2.9-0.1,5.7-1.2,8.4
			c-0.3,0.6-0.7,1.3-0.1,1.9c0.8,0.9,0.5,1.5-0.3,2.2c-2.6,2.3-4.4,5.3-6.6,8c-7.5,9.4-16,17.7-26,24.4c-1,0.7-1.3,1.4-1.1,2.5
			c2.7,17.7,5.5,35.4,8.1,53.1c1.1,7.4,2.2,14.8,3,22.2l7.8,50.5c0,0,0.1-0.1,0.1-0.1l0.7,4.4c0,0.1,0,0.1,0,0.2l9.8,63.1l-0.3,0
			l0,0c-0.6,0-1.2,0-1.8,0l-0.9,0l0,0l0,0l0-0.2l-18.4-123.3l0,0c-2.5-14.9-4.7-29.9-7-44.9c-2.4-15.5-4.6-31-6.9-46.5
			c-0.9-6.2-1.8-12.4-2.7-18.6c-0.1-0.7,0-1.1,0.6-1.5c2.2-1.5,2.3-2.5,0.8-4.6c0.5-0.4,1.1-0.7,1.5-1.2c0.5-0.5,0.3-0.8-0.4-1
			c-0.3,0-0.3-0.2-0.3-0.4c-0.1-0.9-0.7-1.5-1.3-2.3c0.5-0.1,0.9-0.3,1.4-0.4c1.3-0.3,2.1-1.1,2-2.5c-0.1-1.1,0.4-1.5,1.4-1.6
			c0.4,0,1,0,1-0.7c0-0.5-0.5-0.6-0.8-0.7c-1.6-0.6-2.4-1.8-2.8-3.4c-0.2-0.7-0.3-1.4-0.9-2.1c-0.5-0.6,0.2-1.3,0.7-1.9
			c0.2-0.3,0.9-0.2,0.7-0.8c-0.2-0.4-0.6-0.6-1.1-0.6c-0.9,0-1.8,0-2.6,0.3c-1.7,0.7-2.3,0.3-2.6-1.5c-1.5-10.7-3.1-21.4-4.6-32.1
			c-0.2-1.1-0.2-2,0.6-2.9c0.6-0.6,0.4-3.6-0.2-4.2c-0.6-0.6-1.3,0-2-0.3c1.5-2.2,1.2-4.7,1.1-7.2c0-0.9-0.1-1.8,0.6-2.5
			c0.3-0.3,0.4-0.8,0.3-1.2c-0.1-0.8-0.4-1.3-1.4-0.8c-0.9,0.5-1.9,0.8-2.8,1.4c-1.7,1.1-3.3,0.9-5.1,0.3c-0.6-0.2-1.3-0.9-1.8-0.1
			c-0.4,0.7-0.3,1.8,0.5,2.3c1.3,0.7,1.4,1.9,1.8,3.2c0.4,1.5,1.1,2.9,1.6,4.4c0.2,0.7,0.7,0.5,1.2,0.6c0.9,0,1.8-0.5,2.8-0.2
			c-0.9,1.4-2.2,1.3-3.5,1c-0.9-0.2-1.1,0.1-0.9,0.9c0.4,1.6,0.2,3.4,2.1,4.2c0.4,0.2,0.3,0.7,0.4,1.1c1.7,11.1,3.3,22.1,5,33.2
			c0.1,0.9-0.1,1.2-0.9,1.5c-1.5,0.7-3,1.4-4.3,2.2c-1.7,1.1-2,2.3-1.3,4.2c0.6,1.7,0.6,1.7-0.6,3.6c-0.1-0.6-0.2-1-0.3-1.6
			c-1,0.9-1.1,1.9-1.3,2.9c-0.9,5-1,10-1.5,15c0,0-3.3,25.1,16.6,23.2c0.1-0.1,0.2-0.2,0.3-0.4c0,0,0.1,0,0.2,0
			c0.8,5.3,1.6,10.6,2.4,15.9c0.2,1.1-0.6,1.4-1.2,1.8c-5.5,3.6-11.4,6.4-17.4,9.1c-6.9,3.1-13.9,5.9-20.2,10.1
			c-7.9,5.2-14.1,11.9-17.5,20.8c-3.5,9.2-2.7,18.2,2.4,26.7c1.4,2.4,3.2,4.3,5.8,6.2c-0.4-1.2-0.8-2.1-1.1-3
			c-2.6-8.1-1.6-15.6,4.3-21.9c6.4-6.9,15.9-5.4,20.3,2.9c0.1,0.2,0.2,0.4,0.4,0.7c9.4-8.3,17.6-17.7,25.9-27.1
			c0.1,0.6-0.3,0.9-0.6,1.3c-11.4,18.8-24.1,36.7-36,55.2c-2.1,3.2-3.9,6.5-5.9,9.7c-1,1.6-1.2,3.3-0.7,5.1c1.6,5.6,5.4,9,10.5,11.3
			c0.6,0.3,0.9,0.2,1-0.5c2.9-19.6,11.3-36.8,22.6-52.8c0.2-0.3,0.4-0.5,0.8-0.7c-1,1.9-2.1,3.7-3.1,5.6
			c-6,11.5-10.1,23.6-12.1,36.5c-0.7,4.6-0.9,9.3-0.8,14c0,1.2-0.3,2-1.4,2.7c-3.8,2.4-4.6,4.6-1.2,8.7c4.9,5.9,11.3,9.6,18.6,11.8
			c1.1,0.3,1.2,0,1.1-1c-0.5-4.2-0.8-8.3-0.8-12.5c0-7.2,2.3-13.8,5.6-20c1.8-3.5,3.5-7,4.7-10.7c0.1-0.4,0.3-0.8,0.7-1.6
			c0.1,2.1,0.7,3.7,1.1,5.3c0.3,1.2-0.2,2.1-1.5,2.4c-0.7,0.2-0.9,0.8-1.1,1.3c-5.1,9.4-6.8,19.4-5.4,30c1.5,10.6,2.2,21.3,1.4,32
			c-0.1,0.9,0.1,1.4,0.9,1.9c1.5,1,1.4,2.7,1.5,4.5c0.9-0.7,1.7-1.3,2.5-1.9c2-1.5,4.2-2.7,6.7-3.3c0.7-0.2,1.3-0.1,1.9,0.3
			c2.7,1.8,4.7,4.1,5.4,7.3c0.3,1.2,0.7,2.4,1.4,3.4c0.5,0.9,0.9,0.7,1.3-0.1c0.8-1.8,1.1-3.7,0.4-5.7c-0.8,0.2-0.7,1.3-1.4,1.6
			c-1.1-1.9-0.3-3.7,0.3-5.4c0.5-1.3,1.2-2.4,1-3.9c-0.1-0.7,0.2-1.4,0.4-2.2c0.3-1,0.6-2,0.9-3l6.3,39.3c-0.8,0-1.5,0-2.3,0
			c-1.3,0-1.6,0.4-1.3,1.6c0.2,0.8,0.1,1.6,0.2,2.4c0,0.4,0,0.7-0.5,0.7c-0.3,0-0.7,0.1-0.9-0.3c-0.8-1.4-1.5-2.7-1.6-4.4
			c-0.1-1.6-0.3-3.1-1-4.6c-1.2-2.6-1.6-5.4-2.2-8.1c-0.2-1-0.1-1.8,0.6-2.6c0.6-0.6,0.5-1.4-0.2-1.7c-1-0.5-1.4-1.4-1.8-2.3
			c-1.1-2.3-1.9-4.9-3.9-6.7c-0.4-0.4-3.4-1.2-4.6-0.8c-3.2,1.1-5.5,3.6-7.9,5.9c-0.6,0.6-1.2,1.3-1.8,1.9c-0.9,0.9-1.8,1.5-3,0.6
			c-0.6-0.5-1.7,0.4-1.5,1.4c0.6,2.3-0.5,4.3-1.2,6.3c-1.3,3.6-2.4,7.3-3,11.1c-0.2,1.4-0.7,1.9-2.2,2c-5.8,0.2-11.6,0.8-17.7,2.1
			c2.4,0.9,4.5,1.1,6.6,1.3c4.3,0.5,8.7,0.6,13,1.2c3.5,0.5,7,1.3,10.5,1.6c7.3,0.5,14.6,0.4,21.8-0.8c0.6-0.1,1.2-0.1,1.8-0.1
			c30.3,0.1,60.7-0.2,91-0.5c10.4-0.1,20.7-0.2,31.1-1.1c3.5-0.3,7-0.5,10.8-1.5C493,520.4,489.8,520.1,486.6,519.7z M336.2,264.2
			c-0.4-0.2-0.5-0.7-0.6-1.1c-0.4-1.4-0.8-2.8-2.8-2.6c1.5-0.6,4.3-0.1,5.3,0.9c0.4,0.5,0.7,3.1,0.3,3.4
			C337.6,265.2,336.9,264.6,336.2,264.2z M340.2,269.4c-0.1,1-0.9,1.2-1.7,1.3c-1.1,0.1-0.5-0.7-0.6-1.1c-0.2-1-0.5-2-1.4-2.9
			C339.3,266.5,340.5,267.5,340.2,269.4z M353.9,451.3c-1,10.1-2.9,20-4.5,30c-0.2,0.9-0.8,1.1-1.7,1.3c0.1-1.1,0.1-2.1,0.2-3.1
			c0.9-8.3,1.7-16.7,2.3-25c0.2-2.7-0.4-4.9-2.1-7c-2.2-2.8-4.3-5.8-3.5-9.9c2.2,3.9,5,7.2,8,10.3
			C353.7,448.9,354,449.9,353.9,451.3z M345.1,424.8c-0.2-0.4-0.3-0.7,0-1.1c0.6-0.9,1.1-1.9,2-2.6c1.9,4,4.2,7.6,7.2,10.7l0.9,5.5
			C350.9,433.9,347.6,429.7,345.1,424.8z M356.2,485.1c-1.2-0.9-1.4-1.8-1.1-3.1c1.3-6,2.8-12,4.4-18l0.8,5.3
			C358.9,474.5,357.3,479.6,356.2,485.1z M345.4,497.2c4.7-2.4,7.7,0,10.5,4.1c0.3,0.4,0.3,1,0.1,1.6c-1.3-0.9-2.5-1.8-3.7-2.7
			c-1.7-1.2-3.5-1.9-5.6-0.8c-1.3,0.6-2.6,1.1-3.9,1.8c-1.2,0.6-2.4,1.2-3.8,1.9C340.2,500.9,343.2,498.3,345.4,497.2z M334.9,514
			c1.6-2.9,4.2-4.7,6.9-6.3c0.9-0.6,1.6-1.2,1.3-2.4c-0.4-1.4,0.4-2.1,1.5-2.4c1-0.3,2-1.5,2.8-1c0.9,0.5,0.2,1.9,0.3,2.9
			c0,0.3-0.1,0.8,0.4,0.7c1.6-0.4,3,0.5,4.5,0.9c0.2-1.4-0.5-2.7,0-4.4c0.7,1.2,2,1.4,2.1,2.7c0.2,2.7,1.7,4.6,3.6,6.2
			c1.2,1,1.5,2.5,1.6,4.3c-0.8-1-1.2-1.8-1.8-2.3c-2.4-2.3-5.4-3.8-8.4-5.1c-0.4-0.2-0.9-0.1-1.3,0c-5.1,1.9-10.3,3.6-14.1,8.1
			C334.3,515,334.7,514.5,334.9,514z M359.4,521.5c-4.4,0-8.9-0.1-13.3-0.1c-4.5,0-9,0.3-13.9-0.3c1.1-0.7,2-0.9,2.9-1.1
			c4.2-1,8.6-1.1,12.9-1.3c3.9-0.2,7.7,0.5,11.4,1.1c0.7,0.1,1.2,0.5,1.2,1.2C360.6,521.9,359.8,521.5,359.4,521.5z M443.5,386
			c1.5,4.6,2.5,9.1,2.6,13.8c0.1,6.1-0.5,12.1-1,18.1c-0.2,2.2-0.4,4.4-0.5,6.7c-0.2-1.9-0.2-3.7-0.2-5.6c0-9.8-0.5-19.6-2.4-29.3
			C441.6,388.1,442.3,387.1,443.5,386z M438.2,448.7c0.9,0.4,1.3,1,1.4,2c1.3,10.1,2.7,20.2,4.1,30.3c0.1,1-0.2,1.6-1.1,2
			c-1.8-9.3-3.7-18.4-5.4-27.6c-0.5-2.7-1.5-4.6-4-6c-3-1.8-5.7-4-7.9-6.8C429.7,444.8,434,446.7,438.2,448.7z M424.2,434.7
			c-0.4-0.2-0.6-0.5-0.8-0.8c-0.6-1.3-1.3-2.6-1.8-4.5c6.4,4.4,13.1,7.2,20.5,8.2c0.8,0.1,1.6,1.8,1.3,2.9c-0.3,1-1.1,0.4-1.6,0.4
			C435.5,440.2,429.7,437.9,424.2,434.7z M441.4,278.9c-0.5,3.4-0.9,6.8,0.2,10.1c0.2,0.7-0.2,1-0.7,1.2c-1.7,0.6-3.3,1.1-5.1,1.7
			c0-1.6,0.7-2.5,2.1-3c1.3-0.4,1.8-1.2,1.8-2.6c-0.1-2.1-0.2-4.2,0.5-6.3c0.4-1-0.2-1-0.9-0.7c-1.1,0.5-3.8,1.5-3.7,1.8
			c0.6,1.2,0.6,1.2,1.3,2.4c0.2,0.5,0.6,0.9,0.3,1.5c-1.7,3.3-3.3,6.7-5.3,9.9c-0.5,0.8-0.9,0.9-1.4,0c-2.1-3.3-4.3-6.5-6.5-9.7
			c-0.3-0.4-0.5-0.8-0.1-1.3c2.3-3.4,4.5-6.9,6.9-10.4c1.2,1.2,1.9,2.5,2.8,3.7c0.2,0.3,0.4,1,0.9,0.6c1.3-0.7,2.9-0.5,4-1.3
			c0.9-0.6,1.4-0.1,2.1,0.3C441.2,277.4,441.5,278,441.4,278.9z M424.3,186.6c0.5,0.1,0.7,0.5,0.7,1c0,0.4-0.1,0.9-0.7,0.8
			c-1.6-0.3-3.3,0-4.8-1.2C421,186,422.7,186.3,424.3,186.6z M419.5,191.2c0.1,0.8,0.2,1.6,0.3,2.6c1.2-1.5,1.4-3.1,2.6-4.1
			c0.6-0.5,0.9-0.7,1.2,0.2c0.4,1.3,1.2,2.4,2.3,3.4c0.8,0.7,1.4,1.7,1.4,2.9c0,2.1,0.7,4,1.6,5.9c0.5,1,1,2.1,0.6,3.6
			c-0.6-1.4-1.1-2.5-2.2-3.3c0.6,6.1,0.3,8.6-1.5,11.5c-0.2-2.2-1-4-2.3-5.6c-2-2.3-4.1-4.6-4.6-7.9c-1.1,2.1-0.6,4.3-0.2,6.5
			C414.4,202,415.6,196.5,419.5,191.2z M402.8,204.2c0,0,0.2,0,0.2-0.1c1.3,3.7,4.4,5.8,7.1,8.3c0.4-0.5-0.1-1,0.3-1.4
			c2.3,3.6,2.3,3.6,3.8,4.2c-0.1-0.6-0.3-1.2-0.4-1.7c1.3,1.4,2.3,3,3.9,3.9c2.3,1.2,4.6,2.5,6.6,4.2c0.1,0.1,0.2,0.1,0.2,0.2
			c0.4,0.5,0.8,0.5,1.3-0.1c1.2-1.4,2.8-2.3,3.7-3.9c1.2,1,2.2,1.9,1.8,3.6c-0.3,1.2,1.4,1.9,1.6,2.7c0.2,1-0.7,2.3,0.1,3.3
			c0.8,1,1.1,1.8,0.5,3.1c-0.5,1.1,0.9,2.1,0.7,2.9c-0.2,1-1.2,1.9-0.8,3c0.4,1-0.1,1.4-0.7,1.8c-0.7,0.5-2.2,0.8-2.4,0.6
			c-1-1.6-3.6-0.8-4.1-3c-1.8-0.5-2.8-2.1-4.1-3.2c-0.3-0.3-0.6-0.4-0.6-0.9c0-1.7-1.3-2.1-2.5-2.9c-0.9-0.7-0.6-2.7-2.2-3.3
			c-0.1,0-0.3-0.1-0.4-0.1c-0.6-0.1-0.8-0.4-0.8-1.1c0.1-1.6-0.7-2.6-2.4-3.1c-0.5-0.2-0.8-0.2-0.8-0.9c0.1-1.6-0.8-2.6-2.3-3
			c-0.7-0.1-0.9-0.4-0.9-1c-0.1-1.7-1-2.8-2.7-3.3c-0.5-0.1-0.8-0.3-0.9-0.9c-0.2-2.2-0.8-2.8-2.9-3.3c-0.2-0.1-0.6,0-0.6-0.3
			c-0.1-1-0.3-1.8-0.9-2.7C400.3,204.4,403.1,205.4,402.8,204.2z M404.2,159.4c-1.2,2.3-5,3-7.7,1.6
			C399.3,161.3,401.6,160.7,404.2,159.4z M389.4,168.9c0.4-2.1,1.5-3.4,3.1-3.5c1.9-0.1,3.1,0.9,4.1,2.4c0.7,1.1,0.6,2.2-0.2,3.4
			c-0.5-1-0.9-1.7-1.5-2.4c-0.8-0.8-1.7-1.8-2.9-1.2c-1.3,0.6-1.2,1.9-1.1,3.2c0.4,0,0.4-0.2,0.5-0.4c0.4-0.6,0.8-1.5,1.8-0.8
			c1,0.7,0.5,1.2-0.1,1.9c-0.9,1.2-0.6,2.7,0.6,3.6c0.6,0.5,1.4,0.7,2.1,1c1,0.4,1.1,1.3,1.1,2.2c0,0.8-0.5,1.3-1.2,1.6
			c-0.8,0.3-1.8,0.2-2.3-0.6c-0.7-1.5-2-2.4-2.9-3.7C389.3,173.6,388.9,171.3,389.4,168.9z M392.6,180.5c0.8,1.6,1.8,2.2,3.2,2.2
			c-1.2,3.4-1.4,6.2-0.7,8.1c0.3,0,0.2-0.7,0.7-0.5c0.2,1.9-0.3,3.9,0.7,5.8c0.6-0.2,0-1,0.8-1.1c0.1,1.9,0.1,3.8,1.2,5.4
			c0.4,0.6,0.5,1.7,1.3,1.6c0.6-0.1,0.1-1.1,0.3-1.7c0,0,0-0.1,0.1-0.2c0.1,0.1,0.2,0.1,0.2,0.2c0.3,0.9,1.1,1.8,0.8,2.6
			c-0.2,0.7-1.4,0.4-2.1,0.7c-0.4,0.2-0.9,0.6-1.4,0.1c-3.5-3.4-6.9-6.8-11.1-9.5C391.2,190.9,392.4,186.1,392.6,180.5z
			 M419.9,266.5c-1.2-1.4-2.5-2.7-3.6-4.1c-6.8-8-12.6-16.8-18.9-25.2c-1.4-1.9-3-3.8-4-6c-1.7-3.9-3.6-7.7-5.6-11.4
			c-2.9-5.3-6.3-10.3-10.6-14.5c-1.3-1.3-3-2.2-4.8-3.6c4.9,0.3,9.1,1.4,12.5,4.5c3,2.8,5.9,5.7,8.4,8.9c4.4,5.8,7.8,12.3,11.2,18.7
			c5.6,10.6,10.2,21.7,15.6,32.3C420.1,266.2,420,266.3,419.9,266.5z M412,229.1c-1.4-2.2-2.7-4.4-4.2-6.7c1.6,0.3,2.4,0.8,2.3,2.4
			c-0.1,1,0.8,1.8,1.8,2.1c1,0.3,1.5,0.6,1.4,1.7c-0.1,0.7,0.3,1.4,0.9,1.7c1.1,0.5,1.9,1.1,1.9,2.5c0,0.7,0.8,1.2,1.6,1.4
			c0.6,0.1,0.9,0.3,0.9,1.1c0,1.4,0.8,2.2,2.1,2.4c0.6,0.1,0.9,0.3,1,1c0.2,1.5,1.2,2.4,2.7,2.4c0.6,0,0.8,0.2,1,0.7
			c0.7,1.7,1.6,2.2,3.3,1.9c0.4-0.1,0.6-0.1,0.9,0.1c2.4,1.9,3.1,1.8,5-0.6c0.5-0.6,1.1-0.6,1.2,0.1c0.4,2.3,1.1,4.6,0.6,7
			c-0.5,2.5-0.5,2.7,1.8,4c0.3,0.2,0.6,0.3,0.9,0.5c1.7,1,2.2,2.3,1.4,4.1c-0.8,2.1-1.8,4.2-2.7,6.3c-0.3,0.6-0.4,1.1,0.1,1.8
			c1.4,1.9,1.3,1.9-0.5,3.6c-0.3,0.3-0.6,0.6-1.1,1.2c-1.2-4.6-3.6-8.3-5.4-12.4c1.6,1.9,3.2,3.8,4.9,5.9c0.8-2.1,1.5-4.1,2.4-5.9
			c0.6-1.3,0.2-2.1-0.9-2.9C427.5,248.7,418.8,239.7,412,229.1z M384.8,274.6c8.8,0.7,17.7,1.8,26.4,3c2.5,0.3,4.6,1.4,6.5,2.9
			c0.5,0.4,0.9,0.8,0.6,1.5c-0.9,2.1-0.4,4.2,0.3,6.2c0.4,1-0.1,1-0.8,0.9c-1.3-0.2-2.6-0.6-3.9-0.6c-0.4,0-0.7-0.1-0.7-0.6
			c0-2.1-1.2-3.8-1.4-5.9c-0.1-1.2-0.7-1.7-1.8-1.9c-4-0.9-8-1.6-12-2.3c-5.3-1-10.6-1.6-15.9-2.9
			C383.1,274.5,384,274.6,384.8,274.6z M415.1,291c-11.4-1.1-22.1-3.3-32.8-5.4c0.5-0.1,1.1-0.1,1.6-0.1c7.6-0.1,15.1,1.2,22.6,2.2
			C409.6,288.1,412.2,289.3,415.1,291z M370.8,316.5c10.8-6.9,21.3-14.2,31-22.7c1-0.9,2-0.4,2.9-0.1c0.9,0.3-0.2,1,0.1,1.4
			c0.1,0.1,0,0.4,0,0.6c-0.3,6.8,0.2,13.6,1.1,20.4c1,8,2.4,16,5,23.7c3.4,9.9,7.8,19.3,14.9,27.2c0.8,0.9,1.7,1.8,2.7,2.7
			c0.1-0.6-0.2-0.9-0.4-1.3c-2.7-5.1-5.2-10.3-7.1-15.8c-6.4-18.2-10.1-36.9-8.7-56.3c0.1-1.2,0.4-1.5,1.6-1.3
			c2.8,0.6,5.7,1.5,8.6,1.3c1.8-0.1,2.9,0.9,4.3,1.6c1.7,0.9,1.9,2.4,2.2,4c2.3,14.7,3.5,29.6,5.9,44.3c1.7,10.7,3.5,21.3,7,31.6
			c1.1,3,1,5.1-1.9,6.6c-0.1,0.1-0.2,0.2-0.3,0.3c-11.4,10.4-21.6,21.9-32.2,33c-1.9,2-3.8,4.1-5.9,6.4c0-0.8,0-1.3,0-1.7
			c0.2-7.7,0.5-15.5,0.6-23.2c0.3-25.3,0.1-50.5,0.2-75.8c0-8.4,0.2-16.9,0.8-25.3c0-0.5,0.2-1-0.2-1.5
			c-10.9,13.9-30.6,21.2-38.5,24.1C366.8,319.1,368.8,317.8,370.8,316.5z M392.2,327.2c-0.3,3.3-0.5,6.3-0.8,9.4
			c-0.6,7.1-1.1,14.3-1.7,21.4c-0.4,5.4-0.8,10.7-1.3,16.1c-0.1,1,0.3,1.5,1.1,1.9c1.4,0.7,2.8,1.4,4.2,2.2c3.7,2.1,3.7,2.1,3.5,6.4
			c-0.2,0-0.2,0.1-0.3,0c-4-2.3-8-4.4-12.4-6c-0.7-0.3-0.7-0.8-0.6-1.3c0.2-1.3,0.4-2.5,0.5-3.8c1.5-12.7,3.3-25.3,5.1-37.9
			C390.1,332.7,390.3,329.8,392.2,327.2z M382,335.5c-4.7,4.5-14.9,11.2-17.5,11.6c11.2-8.4,20.7-18.3,29.6-29.3
			C392.1,322.8,385.5,332.3,382,335.5z M360.4,388c-0.9,0.3-2,1-2.6,0.7c-0.7-0.4-0.3-1.7-0.6-2.6c-0.3-1,0.1-1.5,1-1.9
			c3.7-1.5,7.5-2.5,11.3-3.2c0.5-0.1,1.2,0,1.4-0.7c0.4-1.4,7.2-23.3,10-31.2c1.4-3.9,2.7-7.8,4-11.7c0.1,0,0.2,0.1,0.2,0.1
			c-0.3,1.3-0.6,2.7-0.9,4c-2.7,14.3-6.3,28.4-9.8,42.5c-0.2,0.9-0.6,1.3-1.6,1.4C368.7,385.8,364.5,386.7,360.4,388z M365.1,438.3
			c0,0-0.1-0.1-0.1-0.2l-0.3-2c0.1-0.4,0.4-0.7,0.7-1c3.4-2.7,6.3-5.6,8-9.7c0.1-0.2,0.3-0.4,0.5-0.6c0.3,0.6,0.3,1.1,0.7,1.6
			c1.4,1.7,1.4,1.7,0.1,3.5c-0.4,0.6-0.9,1.2-1.4,1.7c-2.1,2.5-4.4,4.7-7,6.5C365.8,438.3,365.5,438.8,365.1,438.3z M366.3,446.7
			c2.6-3.1,4.8-6.5,6.5-10.2c0.4-1,1-2,2-2.8c-0.6,4.4-1.7,8.4-4.4,11.8c-1.2,1.5-2.4,3.1-3.5,4.6L366.3,446.7z M443.2,493.4
			c-1.3,1.5-2.6,3.1-4,4.5c-1.4,1.4-2.7,1.5-4.4,0.6c-1.2-0.6-2.4-1.4-3.3-2.5c-0.5-0.7-1-0.8-1.3,0c-1.8,5-4.1,10-3,15.6
			c0.3,1.5-0.7,3-1,4.6c-0.1,0.5-0.9,0.3-1.3,0.3c-5.6,0-11.2,0-16.9-0.1c-10.3-0.1-20.6,0.1-30.9,0.2l-7.9-51.2
			c8.2-4.2,15.2-10,21.6-16.7c7.1-7.5,13.4-15.7,20.3-23.3c1.2-1.3,2.5-2.7,3.8-4c0,0-1.2,4.3,0.9,7.1c0.5,0.7,0.7,1.3,0.6,2.2
			c-0.5,5.3-1.1,10.5-0.2,15.8c0.8,4.7,2.5,8.9,5.1,12.8c4.4,6.7,6.4,14.2,8.4,21.8c0.1,0.4,0.4,0.8-0.4,1c-1.6,0.3-1.6,1.5-1.3,2.6
			c0.5,1.7,1.1,3.4,1.6,5.1c0.1,0.2,0.2,0.4,0.2,0.5c-0.1,2.3,1.8,3.1,3.2,4.2c2.3,1.8,5.1,0.6,5.4-2.4c0.3-2.6-0.8-4.7-2.9-6.3
			c-1.2-0.9-2.2-0.7-3.7,0.5c0.4-2.1,2-3.1,4-2.3c1.9,0.7,3,2.2,3.5,4.1c0.1,0.5,0.3,1,0.5,1.7c1-0.6,1.6-1.5,2.3-2.2
			c1.4-1.4,2.8-2.8,4.5-3.8c0.8-0.4,1.2-0.3,1.6,0.5c0.4,1,1,1.9,1.6,2.8c0.3,0.4,0.3,0.6-0.3,0.9
			C446.9,489.2,445,491.3,443.2,493.4z M433.5,487.4c0.1-0.6,0.4-0.9,1-0.8c0.9,0.1,1.3,0.7,1.4,1.5c0.1,0.7-0.5,0.8-1,0.8
			C434.1,488.9,433.7,488.2,433.5,487.4z M478.3,515.1c-4.5,0.7-8.7,2.3-13.2,3c-6.3,0.9-12.3-0.4-18.1-2.4c4.3,0.6,8.6,0.7,13,0.7
			c0.9,0,1.3-0.2,1.3-1.2c0-1.3,0.4-2.6,1.2-3.8c0.6-0.9,1.3-1.9,2.9-1.7c-1.6,1.4-2.2,3.1-2.4,4.9c-0.1,1.2,0.2,1.5,1.4,1.3
			c3.7-0.6,7.2-1.7,10.8-2.4c0.8-0.2,1.6-0.3,2.3-0.3c0.8,0,1.1,0.8,1.4,1.4C479.1,515.1,478.6,515,478.3,515.1z"/>
	</g>
</g>
</svg>
