<?xml version="1.0" encoding="utf-8"?>
<!-- Generator: Adobe Illustrator 28.0.0, SVG Export Plug-In . SVG Version: 6.00 Build 0)  -->
<svg version="1.1" id="Layer_1" xmlns="http://www.w3.org/2000/svg" xmlns:xlink="http://www.w3.org/1999/xlink" x="0px" y="0px"
	 viewBox="0 0 800 800" style="enable-background:new 0 0 800 800;" xml:space="preserve">
<g>
	<g>
		<path d="M519.9,238h-35.3c-6.1,0-11.9-2.4-16.2-6.7l-0.7-0.7c-4.3-4.3-6.7-10.1-6.7-16.2v-16.8c0-8.5-6.9-15.3-15.3-15.3H338.5
			c9.8,7.4,10.6,19.6,10.6,19.6s5.7-1.7,18.8,4.3c24.5,10.2,25.9,26.1,25.1,33.4h45c6.1,0,11.9,2.4,16.2,6.7
			c4.3,4.3,6.7,10.1,6.7,16.2v108.3c0,6.1-2.4,11.9-6.7,16.2l-0.9,0.9c-4.3,4.3-10.1,6.7-16.2,6.7h-22.6c-60.7-4-56.4-43-57.8-56.6
			c4.6,4,9.6,7.3,14.8,10.4c1.4,0.8,2.7,1.7,3.9,2.8c4.1,3.6,6.5,7.8,5.5,13.2c-0.1,0.6-0.3,1.2,0.5,2c11.8-6.7,15.8-17,13.9-30.5
			c2.1,2.3,2.1,5.1,3.2,7.5c0.3-0.4,0.6-0.6,0.6-0.8c0.1-0.5,0.1-0.9,0.2-1.4c0.6-7.2-1.5-13.7-6-19.4c-2.5-3.2-4.7-6.2-1.2-10.4
			c-3.3-0.4-6.4,0.1-8.7-2.2c2.8-2.2,3.1-2.3,7-2.4c3,0,4.3-1.2,4.9-4c0.3-1.4,0.2-2.7-0.4-3.8c-0.9-1.7-0.6-2.4,1.4-3
			c4.6-1.4,5.4-3.3,3.6-7.8c-1.8-4.4-3.6-8.8-5.4-13.2c-1.2-3.1-3-6.1-1.2-9.5c0.1-0.2,0.1-0.5,0.1-0.7c0-0.5-0.1-1-0.7-1
			c-3.6-0.2-6.5-2.3-9.4-3.9c-5.6-3.2-11-2.5-16.2,0.8c-0.6,0.4-1.4,0.7-1.5,1.7c1.7-0.2,3.2-0.4,4.8-0.6c4-0.4,7.6,0.5,10.7,3.2
			c0.8,0.7,1.4,1.3,1,2.4c-0.3,1.1-1.2,0.9-2.1,1c-1.6,0-3.1,0-4.7,0c-2.1,0-4.3,0-6.9,0.9c3.1,1.5,5.7,2.7,8.4,4
			c0.9,0.4,1.9,0.7,2.5,1.3c0.8,0.8-0.6,1.9,0,3c1.9-0.8,3-2.1,3.7-3.9c0.8-2.1,2.3-3.3,4.2-4.2c1.3-0.6,2.9-0.1,3.5,1.2
			c0.9,1.7,1.6,3.4,2.3,5.2c1.8,4.5,3.5,9.1,5.5,13.6c0.9,2-0.6,3.6-2.6,3.6c-0.9,0-1.9-0.3-2.8-0.5c-2-0.5-4-0.6-6,0.2
			c-1.3,0.5-2.3,0.6-3.1-0.7c-0.7-1.2-0.4-2.9,0.9-3.8c0.7-0.5,1.6-0.8,2.6-1.3c-4.7-0.6-7.3,2.1-6.3,6.5c0.2,1,0.8,1.8-0.5,2.4
			c-4,1.6-7.1,4.4-9.6,7.8c-0.7,1-1.4,1-2.4,0.4c-3.1-1.9-5.2-4.6-5.8-8.2c-0.6-3.9-2.1-7.3-4.5-10.4c-1.4-1.7-2.9-3.2-4.3-4.8
			c-6.1-6.6-6.2-14.3-0.3-21.4c0.8-0.9,1.5-1.9,2.2-2.9c1.8-2.9,2.9-6,2.4-10.3c-3.5,4.7-7.5,7.6-12.7,8.4c-5.1,0.8-9.9,0-14.7-3.3
			c12.8,1.3,21.1-2.7,24.3-11.5c-2.5,0.5-4.7,1.7-7.6,1.9c7-5.5,14-9.8,23.1-9.6c-7.2-3.9-13.6-8.9-21.4-11.5
			c7.2-0.3,13.7,2.1,20.2,4.7c6.5,2.6,12.9,5.4,17.3,11.3c1.1-1.2,0.7-2.2,0.6-3.1c-1-7.5-5.2-13.1-11.3-17.1
			c-15.3-10-31.9-10.9-49.1-5.7c-2.1,0.6-4.2,1.5-6.2,2.3c3-3.2,6.8-4.8,10.7-6.2c4-1.4,8.2-1.6,12.9-1.8c-3.2-5-7.5-6.1-12.4-5.9
			c-6,0.3-11.3,2.6-16.1,6.2c-0.9,0.7-1.6,1.7-3.3,2c2.3-4.5,5.6-7.3,9.5-9.6c6.1-3.6,12.6-4.7,20.3-2.1c-1.2-3.1-2.7-5-4.4-6.6
			c-5.5-5-12-7.1-19.4-6.7c-11.5,0.5-22.6,9.3-25.6,20.2c-2.3,8.6,1.2,17.4,8.8,21.8c0.6,0.3,1.4,0.4,1.4,1.5
			c-3.4,3.4-6.5,7.2-8.6,11.7c-5.8,12-5.6,24.2-0.9,36.4c1.8,4.6,5.2,8.4,6.7,13c4.3,13.7-7.8,19.1-7.8,19.1
			c-2.8,1.8-5.7,3.6-7.7,6.3c-2.3,3.1-3.2,6.3-1.3,10.2c1-1.5,0.8-3.2,1.5-4.5c1.8-3.6,4.8-5.9,8.5-7.3c3.5-1.3,6.8-2.8,9.8-5.1
			c0.6-0.4,1-1.2,2.3-1.2c-2.1,4-5,6.5-8.4,8.5c-2,1.3-4.1,2.5-5.5,4.5c-2.6,3.6-1.2,7.1,3.1,8.1c0.7,0.2,1.7-0.3,2.1,0.8
			c-0.7,1.2-1.7,2.2-3,2.6c-19.1,6.2-18.1,35.9-16.6,40.5c5.3-5.2,14.9-12.9,36.5-8.7c26.1,5.1,34.1,25,34.1,25.1
			c0,0-0.6-0.7-1.5-1.8c-8.1-9.5-25-18-37.5-18.4c-31-1.2-32.2,21-34.5,24.8c35.4-31.2,70.2,17.6,70.5,18.6
			c-1.2,0.4-10.5-14.3-36.7-20.6c-12-2.1-24.4,3-31.1,13.2c-4.3,7.2-4,12.4-4.1,13.1v23c0,7.9,6.4,14.2,14.2,14.2
			c33.1,0,112,0,112,0l0,0h54.6c3.9,0,7.1-3.2,7.1-7.1V419c0-6.1,2.4-11.9,6.7-16.2l2.9-2.9c4.3-4.3,10.1-6.7,16.2-6.7h33.2
			c3.9,0,7.1-3.2,7.1-7.1V311v-65.9C527,241.2,523.8,238,519.9,238z M329.7,274.7c-1.1-0.8-1-2.1-1.5-3.1c-1-2.1-2.5-3.8-4.7-4.7
			c-3.3-1.4-6,0.2-6.5,3.7c-0.1,1.1-0.2,2.1,0.3,3.2c1.2,0.2,1.4-1.1,2.3-1.4c0.8-0.2,1.6-0.3,2.4,0.3c0.2,0.9-0.6,1.5-0.9,2.2
			c-1.9,4.9,1.2,10.2,6.4,10.9c1.3,0.2,1.7,0.6,1.8,1.6c0.1,0.9,0.2,1.9,0.1,2.8c-0.3,2.4-1.9,3.5-4.3,3.1c-1.6-0.3-2.8-1.2-3.9-2.4
			c-3.8-4.5-6.6-9.6-8.3-15.3c-0.6-2.2-0.7-4.5-0.2-6.7c1.2-5.8,6.6-8.5,12-6.2C328.6,264.5,332.8,270.2,329.7,274.7z"/>
		<path d="M392.8,259c0.6-0.1,0.8-0.6,0.8-1.1c0.2-3.1-0.3-6-2.5-8.5c-1.8,3.2-1.6,6.7,0.4,9C391.9,258.7,392.2,259.1,392.8,259z"/>
	</g>
	<g>
		<g>
			<path d="M117.5,594.4h4.3v23.1h-4.3V594.4z"/>
			<path d="M161.6,594.4v23.1h-3.5l-12.7-15.6v15.6h-4.2v-23.1h3.5l12.7,15.6v-15.6H161.6z"/>
			<path d="M185.7,598H178v-3.6h19.6v3.6H190v19.4h-4.3V598z"/>
			<path d="M231.3,613.9v3.6H214v-23.1h16.8v3.6h-12.5v6h11.1v3.5h-11.1v6.4H231.3z"/>
			<path d="M249.2,594.4h4.3v19.4h12.1v3.6h-16.3V594.4z"/>
			<path d="M282.1,594.4h4.3v19.4h12.1v3.6h-16.3V594.4z"/>
			<path d="M315,594.4h4.3v23.1H315V594.4z"/>
			<path d="M354.5,605.7h4.1v9.2c-1.2,0.9-2.6,1.7-4.2,2.2c-1.6,0.5-3.2,0.8-4.9,0.8c-2.3,0-4.5-0.5-6.4-1.5c-1.9-1-3.4-2.4-4.4-4.2
				s-1.6-3.8-1.6-6.1c0-2.3,0.5-4.3,1.6-6.1c1.1-1.8,2.6-3.2,4.5-4.2c1.9-1,4-1.5,6.4-1.5c1.9,0,3.7,0.3,5.3,1
				c1.6,0.6,2.9,1.6,4,2.8l-2.7,2.6c-1.8-1.8-3.9-2.6-6.4-2.6c-1.6,0-3.1,0.3-4.3,1s-2.3,1.6-3,2.9c-0.7,1.2-1.1,2.6-1.1,4.2
				c0,1.5,0.4,2.9,1.1,4.2c0.7,1.2,1.7,2.2,3,2.9c1.3,0.7,2.7,1.1,4.3,1.1c1.8,0,3.4-0.4,4.7-1.2V605.7z"/>
			<path d="M394.6,613.9v3.6h-17.3v-23.1h16.8v3.6h-12.5v6h11.1v3.5h-11.1v6.4H394.6z"/>
			<path d="M433.1,594.4v23.1h-3.5l-12.7-15.6v15.6h-4.2v-23.1h3.5l12.7,15.6v-15.6H433.1z"/>
			<path d="M456.8,616.3c-1.9-1-3.3-2.4-4.4-4.2c-1.1-1.8-1.6-3.8-1.6-6.1c0-2.3,0.5-4.3,1.6-6.1c1.1-1.8,2.6-3.2,4.4-4.2
				c1.9-1,4-1.5,6.3-1.5c1.9,0,3.6,0.3,5.2,1c1.6,0.7,2.9,1.6,4,2.9l-2.8,2.6c-1.7-1.8-3.7-2.7-6.2-2.7c-1.6,0-3,0.3-4.2,1
				c-1.3,0.7-2.2,1.7-2.9,2.9s-1.1,2.6-1.1,4.2s0.4,3,1.1,4.2c0.7,1.2,1.7,2.2,2.9,2.9c1.3,0.7,2.7,1,4.2,1c2.4,0,4.5-0.9,6.2-2.7
				l2.8,2.6c-1.1,1.3-2.4,2.2-4,2.9c-1.6,0.7-3.3,1-5.2,1C460.8,617.8,458.7,617.3,456.8,616.3z"/>
			<path d="M506.8,613.9v3.6h-17.3v-23.1h16.8v3.6h-12.5v6H505v3.5h-11.1v6.4H506.8z"/>
			<path d="M562.8,605.7h4.1v9.2c-1.2,0.9-2.6,1.7-4.2,2.2c-1.6,0.5-3.2,0.8-4.9,0.8c-2.3,0-4.5-0.5-6.4-1.5c-1.9-1-3.4-2.4-4.4-4.2
				s-1.6-3.8-1.6-6.1c0-2.3,0.5-4.3,1.6-6.1c1.1-1.8,2.6-3.2,4.5-4.2c1.9-1,4-1.5,6.4-1.5c1.9,0,3.7,0.3,5.3,1
				c1.6,0.6,2.9,1.6,4,2.8l-2.7,2.6c-1.8-1.8-3.9-2.6-6.4-2.6c-1.6,0-3.1,0.3-4.3,1s-2.3,1.6-3,2.9c-0.7,1.2-1.1,2.6-1.1,4.2
				c0,1.5,0.4,2.9,1.1,4.2c0.7,1.2,1.7,2.2,3,2.9c1.3,0.7,2.7,1.1,4.3,1.1c1.8,0,3.4-0.4,4.7-1.2V605.7z"/>
			<path d="M588.1,615.1c-1.8-1.8-2.7-4.4-2.7-7.7v-13h4.3v12.8c0,4.5,2,6.8,5.9,6.8c3.9,0,5.8-2.3,5.8-6.8v-12.8h4.2v13
				c0,3.3-0.9,5.9-2.7,7.7c-1.8,1.8-4.2,2.7-7.4,2.7C592.4,617.8,589.9,616.9,588.1,615.1z"/>
			<path d="M639.9,617.5l-4.7-6.8c-0.2,0-0.5,0-0.9,0h-5.2v6.7h-4.3v-23.1h9.5c2,0,3.7,0.3,5.2,1c1.5,0.7,2.6,1.6,3.4,2.8
				c0.8,1.2,1.2,2.7,1.2,4.4c0,1.7-0.4,3.2-1.3,4.5c-0.8,1.3-2.1,2.2-3.6,2.8l5.3,7.6H639.9z M638.4,599.2c-1-0.8-2.4-1.2-4.2-1.2
				h-5v9.2h5c1.9,0,3.3-0.4,4.2-1.2c1-0.8,1.5-1.9,1.5-3.4C639.8,601.1,639.3,600,638.4,599.2z"/>
			<path d="M664.5,615.1c-1.8-1.8-2.7-4.4-2.7-7.7v-13h4.3v12.8c0,4.5,2,6.8,5.9,6.8c3.9,0,5.8-2.3,5.8-6.8v-12.8h4.2v13
				c0,3.3-0.9,5.9-2.7,7.7s-4.2,2.7-7.4,2.7C668.8,617.8,666.3,616.9,664.5,615.1z"/>
		</g>
		<g>
			<g>
				<path d="M167.9,496.3c7.2,0,13.2,5.8,13.2,13.1v37.5c0,7.2-5.9,13.1-13.2,13.1h-50.4v-63.6H167.9z M131.2,546.1h36v-36h-36
					V546.1z"/>
				<path d="M231.8,508.7v13.5h-27.6v37.7h-13.5v-38.4c0-7,5.8-12.8,12.9-12.8H231.8z"/>
				<path d="M276.6,508.7c7.1,0,12.8,5.8,12.8,12.8v25.6c0,7-5.7,12.8-12.8,12.8h-26.3c-7,0-12.8-5.8-12.8-12.8v-25.6
					c0-7,5.8-12.8,12.8-12.8H276.6z M250.9,546.4h24.9v-24.2h-24.9V546.4z"/>
				<path d="M348.2,521.5v38.4h-13.5v-37.7h-24.9v37.7h-13.5v-51.2h39.1C342.4,508.7,348.2,514.5,348.2,521.5z"/>
				<path d="M409.5,521.5v38.4h-39.1c-7.1,0-12.8-5.8-12.8-12.8v-19.6H396v-5.3h-38.4v-13.5h39.1
					C403.8,508.7,409.5,514.5,409.5,521.5z M396,539.3h-24.9v7.1H396V539.3z"/>
				<path d="M430.1,491.8v54.6h10.3v13.5h-11.1c-7,0-12.8-5.8-12.8-12.8v-55.3H430.1z"/>
				<path d="M486.3,578.3h-31.1v-13.6h30.4v-4.8H460c-7.1,0-12.9-5.8-12.9-12.8v-38.2h13.5v37.5h25v-37.5h13.5v56.6
					C499.2,572.6,493.4,578.3,486.3,578.3z"/>
				<path d="M522.1,522.2v24.2h19v13.5h-19.6c-7.2,0-12.9-5.8-12.9-12.8v-53.6h13.5v15.2h19v13.5H522.1z"/>
				<path d="M561.9,491.9v13.6h-13.5v-13.6H561.9z M548.4,508.7h13.5v51.2h-13.5V508.7z"/>
				<path d="M582.9,522.2v24.2h38.4v13.5h-39.1c-7,0-12.8-5.8-12.8-12.8v-25.6c0-7,5.8-12.8,12.8-12.8h39v13.5H582.9z"/>
				<path d="M682.5,524.1h-13.6v-1.9H644v5.3h25.6c7.2,0,12.9,5.8,12.9,12.8v6.8c0,7-5.7,12.8-12.9,12.8h-26.3
					c-7,0-12.8-5.8-12.8-12.8v-2.6H644v1.9h24.9v-5.3h-25.6c-7,0-12.8-5.8-12.8-12.8v-6.8c0-7,5.8-12.8,12.8-12.8h26.3
					c7.2,0,12.9,5.8,12.9,12.8V524.1z"/>
			</g>
		</g>
	</g>
</g>
</svg>
